<?xml version="1.0" standalone="no"?>
<!DOCTYPE svg PUBLIC "-//W3C//DTD SVG 20010904//EN"
 "http://www.w3.org/TR/2001/REC-SVG-20010904/DTD/svg10.dtd">
<svg version="1.0" xmlns="http://www.w3.org/2000/svg"
 width="1288.000000pt" height="1611.000000pt" viewBox="0 0 1288.000000 1611.000000"
 preserveAspectRatio="xMidYMid meet">

<g transform="translate(0.000000,1611.000000) scale(0.100000,-0.100000)"
fill="#000000" stroke="none">
<path d="M6065 15587 c-17 -12 -53 -12 -239 -4 -200 10 -225 9 -285 -7 -36
-10 -118 -24 -181 -32 -63 -7 -140 -20 -170 -28 -30 -8 -75 -20 -100 -27 -25
-6 -61 -17 -80 -24 -19 -7 -82 -30 -140 -50 -163 -57 -311 -117 -352 -142 -20
-12 -87 -43 -149 -68 -62 -24 -129 -55 -148 -68 -70 -46 -147 -91 -221 -130
-41 -21 -77 -42 -80 -46 -3 -4 -25 -19 -50 -33 -54 -32 -187 -161 -230 -223
-17 -25 -37 -63 -45 -84 -7 -22 -31 -57 -52 -78 -23 -23 -44 -57 -52 -83 -7
-25 -26 -64 -42 -88 -16 -24 -29 -49 -29 -56 0 -8 -6 -29 -14 -48 -8 -19 -17
-65 -19 -104 -6 -81 -26 -123 -98 -209 -41 -49 -49 -65 -45 -88 4 -19 -3 -45
-20 -80 -22 -42 -25 -59 -20 -101 6 -53 -22 -165 -58 -231 -9 -16 -16 -37 -16
-45 0 -8 -8 -28 -17 -45 -12 -21 -17 -59 -19 -130 -2 -77 -9 -118 -29 -175
-34 -100 -47 -339 -21 -410 9 -25 16 -67 16 -95 1 -70 15 -126 38 -145 25 -19
30 -44 37 -204 6 -130 31 -271 62 -360 11 -29 38 -70 66 -100 44 -45 117 -168
117 -196 0 -6 23 -49 51 -95 28 -46 49 -90 46 -98 -3 -8 -43 -27 -89 -41 -84
-28 -127 -61 -177 -136 -18 -26 -23 -122 -6 -112 6 3 2 -4 -9 -16 -12 -14 -16
-29 -12 -45 4 -17 0 -30 -14 -42 -11 -10 -20 -26 -20 -37 0 -10 -4 -18 -8 -18
-5 0 -9 -12 -10 -27 0 -16 -7 -44 -15 -63 -8 -19 -12 -41 -10 -47 3 -7 -1 -13
-7 -13 -7 0 -9 -8 -4 -22 4 -12 8 -63 9 -113 2 -68 8 -100 24 -132 13 -26 21
-61 21 -93 0 -31 8 -66 20 -90 11 -22 20 -46 20 -55 0 -8 4 -15 9 -15 5 0 12
-23 16 -50 5 -33 12 -50 21 -50 8 0 14 -9 14 -19 0 -11 5 -23 11 -27 6 -3 9
-15 6 -25 -3 -12 4 -26 19 -38 15 -12 22 -25 18 -35 -3 -9 -1 -16 5 -16 6 0
11 -9 11 -19 0 -11 9 -23 20 -26 22 -7 28 -25 8 -25 -6 0 -2 -10 10 -23 12
-13 22 -28 22 -34 0 -6 9 -9 20 -6 22 6 28 -15 9 -34 -7 -7 -4 -12 10 -16 12
-3 19 -1 15 4 -9 14 4 10 26 -8 11 -10 20 -23 20 -30 0 -7 4 -13 9 -13 5 0 11
-9 14 -20 3 -11 12 -20 20 -20 8 0 18 -11 21 -25 5 -21 12 -25 34 -23 22 3 27
-1 26 -19 0 -13 3 -23 8 -23 10 0 48 37 48 48 0 15 -57 92 -95 129 -22 21 -40
41 -40 44 0 3 -8 13 -17 23 -10 10 -18 21 -18 25 0 10 -35 51 -44 51 -18 0
-43 34 -38 53 3 14 1 18 -6 13 -7 -4 -12 -1 -12 9 0 11 -5 15 -14 12 -8 -3
-18 5 -25 19 -6 13 -7 24 -2 24 5 0 11 -6 14 -12 2 -7 8 -9 13 -5 5 5 1 13 -9
18 -9 6 -17 17 -17 26 0 12 3 13 13 4 8 -6 17 -8 20 -4 12 12 7 23 -10 23 -13
0 -14 3 -5 12 18 18 15 30 -5 24 -21 -6 -51 9 -40 21 5 4 13 1 18 -7 9 -12 10
-12 5 3 -3 10 -6 23 -6 28 0 6 -8 9 -17 7 -11 -2 -19 5 -21 17 -2 11 -10 27
-16 35 -20 24 -45 100 -39 116 3 8 0 21 -7 29 -6 8 -9 19 -6 24 4 5 2 12 -4
16 -5 3 -10 24 -10 45 0 21 -5 42 -11 45 -5 4 -9 17 -7 28 1 12 -2 29 -7 37
-6 8 -11 60 -12 115 -1 55 -2 100 -3 100 -1 0 -4 19 -6 43 -3 26 -1 42 6 42 6
0 9 12 8 28 -1 15 4 38 11 51 10 19 10 25 1 31 -9 5 -6 10 10 15 15 5 25 2 31
-6 6 -10 9 -8 9 8 0 13 9 28 20 35 12 8 18 19 14 33 -3 14 2 23 17 30 26 12
35 81 12 93 -11 7 -10 13 7 35 28 35 55 29 112 -25 24 -21 57 -46 73 -55 17
-9 38 -25 47 -36 14 -16 21 -17 32 -7 17 13 39 5 33 -13 -2 -6 12 -24 30 -40
18 -16 30 -34 26 -40 -3 -6 -1 -7 6 -3 6 4 14 0 17 -8 3 -9 13 -16 20 -16 8 0
19 -12 24 -27 6 -16 14 -35 19 -43 25 -38 71 -144 76 -173 3 -17 7 -91 9 -163
2 -72 7 -138 12 -145 10 -15 10 -18 18 -124 4 -38 13 -94 22 -124 8 -30 13
-64 10 -77 -3 -12 0 -29 7 -36 15 -16 15 -34 -1 -70 -12 -28 -26 -36 -36 -19
-3 4 -40 11 -83 13 -44 3 -79 10 -81 17 -2 6 -9 11 -16 11 -18 0 -66 24 -66
33 0 21 -41 2 -64 -31 -30 -44 -36 -102 -10 -102 9 0 27 -11 40 -25 23 -24 30
-26 150 -29 120 -3 127 -2 151 20 13 12 24 25 24 28 -1 3 2 6 7 6 17 1 21
-133 6 -195 -8 -32 -21 -46 -71 -70 -20 -10 -30 -21 -27 -29 7 -18 -16 -32
-26 -16 -6 9 -9 9 -15 0 -4 -6 -13 -9 -20 -6 -7 2 -12 -3 -11 -12 1 -10 -11
-21 -31 -27 l-33 -11 29 -17 c32 -19 71 -23 71 -7 0 6 11 8 25 4 20 -5 26 -1
35 22 8 21 14 24 22 16 19 -19 33 -14 45 18 12 33 40 40 50 13 4 -10 12 -24
19 -31 19 -19 27 -94 15 -138 -15 -52 -15 -49 23 -72 31 -18 33 -24 34 -71 1
-28 10 -77 21 -108 11 -32 24 -92 30 -133 5 -41 19 -104 31 -139 11 -35 20
-71 20 -81 0 -9 3 -20 7 -24 4 -4 13 -26 19 -49 26 -92 77 -226 118 -307 82
-163 169 -325 195 -365 14 -22 31 -48 36 -57 6 -9 31 -48 56 -85 50 -75 79
-161 81 -245 2 -85 -1 -91 -50 -127 -49 -35 -77 -70 -122 -156 -15 -27 -38
-70 -52 -95 -108 -190 -155 -291 -179 -386 -6 -22 -15 -57 -20 -79 -6 -21 -15
-45 -21 -53 -18 -21 -87 -48 -183 -71 -49 -12 -112 -28 -139 -36 -26 -8 -57
-15 -68 -15 -11 0 -41 -6 -67 -14 -25 -8 -75 -24 -111 -35 -36 -11 -110 -36
-165 -57 -55 -20 -154 -55 -220 -79 -123 -43 -287 -108 -316 -124 -8 -5 -92
-41 -185 -81 -196 -83 -645 -295 -759 -358 -11 -6 -85 -43 -165 -82 -188 -92
-204 -101 -340 -191 -103 -69 -210 -134 -340 -206 -25 -14 -52 -31 -60 -37
-26 -21 -274 -146 -288 -146 -6 0 -12 -4 -14 -8 -2 -5 -39 -30 -83 -57 -129
-77 -295 -194 -335 -235 -5 -5 -25 -17 -67 -39 -10 -6 -45 -23 -78 -39 -33
-16 -78 -41 -99 -56 -39 -26 -61 -32 -70 -18 -2 4 -9 43 -15 87 -9 73 -13 178
-26 655 -2 85 -7 232 -10 325 -6 173 -8 253 -21 710 -3 143 -9 262 -11 265 -6
6 4 -1788 11 -2060 3 -96 8 -231 11 -300 4 -69 8 -233 11 -365 2 -132 6 -285
9 -340 2 -55 7 -201 10 -325 3 -124 7 -252 10 -285 2 -33 7 -172 10 -310 4
-137 8 -266 10 -285 2 -19 7 -120 10 -225 7 -229 12 -356 19 -535 3 -74 8
-200 11 -280 3 -80 8 -153 11 -162 3 -10 1 -33 -5 -53 -5 -19 -6 -37 -2 -40 4
-2 8 -19 9 -37 1 -38 20 -509 28 -678 2 -63 8 -177 12 -253 5 -89 4 -137 -3
-137 -5 0 -4 -4 2 -8 7 -5 12 -26 12 -48 0 -21 0 -67 1 -101 l2 -63 6344 0
6344 0 0 2800 0 2800 -27 12 c-16 7 -35 17 -43 23 -8 7 -42 22 -75 35 -33 13
-64 27 -70 30 -5 4 -64 27 -130 50 -103 37 -278 116 -310 140 -11 8 -257 101
-315 118 -19 6 -75 23 -125 38 -49 15 -117 35 -150 45 -110 33 -299 77 -363
84 -66 7 -83 16 -332 175 -112 71 -275 154 -355 181 -22 7 -44 17 -50 21 -5 4
-17 8 -26 8 -10 0 -66 17 -126 38 -59 21 -164 57 -233 80 -69 23 -181 62 -250
88 -69 25 -161 57 -205 71 -44 14 -163 58 -265 98 -173 68 -311 115 -339 115
-7 0 -30 9 -51 20 -22 11 -59 29 -81 41 -42 21 -130 51 -185 63 -33 7 -77 60
-123 146 -13 25 -58 90 -100 145 l-76 100 -1 180 c-2 245 13 323 81 415 23 30
46 66 53 80 6 14 20 39 30 55 58 98 94 168 111 216 19 52 72 183 91 224 24 53
65 222 80 335 6 41 17 98 25 125 26 91 45 184 45 218 0 48 18 95 40 102 10 3
35 -1 55 -10 21 -8 44 -15 51 -15 23 0 15 30 -11 42 -14 6 -25 18 -25 26 0 8
-7 20 -17 27 -9 7 -15 24 -14 41 2 26 7 94 10 119 1 6 11 16 22 24 19 11 21
11 16 -3 -8 -20 13 -56 32 -56 8 0 11 -7 8 -20 -3 -11 -1 -18 4 -14 5 3 9 -2
9 -11 0 -12 5 -15 17 -11 9 4 20 1 24 -5 4 -7 21 -12 39 -11 18 0 33 -5 36
-13 7 -18 34 -8 34 12 0 11 7 13 23 9 28 -7 69 19 66 42 -3 22 18 72 30 72 5
0 21 30 37 68 16 37 31 69 35 72 3 3 9 15 13 28 4 12 11 22 16 22 12 0 48 73
43 87 -2 7 5 18 15 24 11 7 18 19 15 26 -3 7 0 13 7 13 6 0 8 5 5 10 -4 6 -1
17 5 25 6 8 9 19 5 25 -3 5 1 10 9 10 27 0 46 40 39 85 -4 32 -2 43 10 48 8 3
23 32 32 64 10 32 23 64 28 71 8 10 7 16 -4 23 -12 7 -11 9 3 9 10 0 15 6 12
18 -5 17 13 94 39 169 8 23 12 53 10 66 -3 13 2 28 10 35 11 9 14 26 10 60 -3
26 -6 48 -8 50 -2 2 -12 -2 -23 -9 -20 -12 -31 -49 -35 -116 -1 -18 -8 -38
-14 -44 -7 -7 -13 -25 -13 -40 0 -15 -6 -39 -14 -54 -8 -15 -12 -33 -9 -41 2
-7 -9 -27 -26 -44 -23 -25 -28 -36 -21 -50 7 -13 2 -24 -20 -45 -32 -31 -54
-27 -27 3 18 20 23 37 7 27 -5 -3 -7 13 -4 42 4 39 1 53 -16 73 l-22 25 6 -27
c3 -16 9 -40 12 -54 5 -19 2 -29 -10 -36 -9 -5 -16 -17 -16 -26 0 -10 -5 -23
-11 -29 -18 -18 -1 -55 22 -48 10 4 19 3 19 -1 0 -11 -34 -33 -51 -34 -13 0
-17 -11 -17 -46 -1 -28 -8 -54 -18 -65 -9 -10 -14 -25 -11 -33 3 -8 -1 -20 -9
-26 -8 -7 -14 -21 -14 -32 0 -23 -29 -36 -40 -18 -11 17 -1 103 12 111 7 4 8
15 3 25 -5 11 -7 22 -7 27 1 4 -2 26 -8 50 -8 37 -7 44 10 57 13 10 18 22 14
37 -6 23 -26 23 -20 0 1 -7 1 -9 -1 -4 -3 4 -11 7 -18 7 -7 0 -16 7 -19 16 -9
23 -8 27 8 21 10 -4 13 -1 9 9 -6 17 -13 17 -34 1 -9 -7 -14 -18 -12 -24 3 -7
0 -13 -6 -13 -6 0 -11 5 -11 11 0 6 -6 9 -12 6 -7 -2 -12 -13 -10 -23 2 -17 0
-16 -14 4 -9 12 -25 22 -35 22 -18 0 -20 6 -23 55 -1 13 -7 19 -18 19 -12 -1
-18 5 -18 18 0 10 -4 17 -9 13 -6 -3 -7 6 -2 23 7 23 5 31 -11 41 -15 9 -18
18 -13 43 7 29 6 30 -17 25 -21 -6 -26 0 -48 55 -21 53 -25 79 -25 180 0 90 3
121 14 127 7 5 10 14 7 20 -4 6 -2 11 3 11 6 0 11 7 11 15 0 8 4 15 10 15 5 0
6 8 3 17 -7 17 -6 17 20 1 22 -15 27 -16 34 -4 4 8 19 16 33 18 17 2 25 9 24
21 -2 13 3 16 17 12 18 -6 23 2 20 31 -1 7 10 15 25 18 15 4 24 12 21 20 -3 7
6 21 19 31 13 10 24 24 24 31 0 8 7 14 16 14 10 0 13 6 9 19 -4 14 1 20 21 25
27 7 54 -7 54 -29 0 -6 -9 -22 -20 -35 -31 -36 -16 -36 19 0 24 25 28 36 21
54 -6 17 -4 25 11 34 29 19 23 38 -18 48 -56 14 -63 35 -31 92 36 65 84 193
104 277 25 110 34 205 39 420 2 110 10 229 16 264 8 44 10 121 5 245 -7 166
-10 187 -36 251 -54 136 -68 180 -69 227 -1 58 -92 251 -182 389 -32 49 -67
106 -78 127 -41 81 -144 223 -236 327 -15 17 -43 52 -63 78 -20 26 -58 62 -85
79 -26 17 -55 40 -65 52 -9 11 -44 43 -76 70 -32 27 -73 70 -91 94 -28 39 -31
49 -22 72 9 23 6 33 -20 71 -17 24 -34 58 -37 76 -8 35 -53 99 -125 178 -87
96 -156 186 -171 224 -22 56 -73 98 -181 150 -139 67 -195 91 -212 91 -9 0
-18 4 -22 9 -3 5 -20 12 -38 16 -30 6 -100 36 -178 76 -20 10 -81 26 -135 35
-55 8 -119 24 -144 34 -25 10 -76 21 -115 24 -99 10 -286 35 -294 41 -11 6
-100 14 -225 20 -60 3 -113 8 -117 11 -10 6 -249 23 -424 30 -94 4 -124 2
-140 -9z m-105 -1686 c38 -38 78 -45 115 -21 18 12 34 16 44 11 22 -11 163 5
172 20 4 6 12 8 19 4 8 -5 7 -12 -6 -26 -17 -19 -16 -19 28 -16 50 4 75 -4 64
-22 -4 -6 -4 -10 1 -9 4 1 17 -3 29 -9 17 -10 23 -8 37 8 9 10 12 19 7 19 -6
0 -10 5 -10 10 0 21 19 8 83 -55 37 -36 68 -65 71 -65 2 0 16 7 32 14 29 16
44 13 44 -8 0 -8 11 -13 29 -12 25 1 31 6 36 33 4 21 10 30 19 27 7 -3 16 2
19 10 5 13 12 14 32 6 37 -14 55 -12 55 5 0 22 36 38 52 22 32 -32 50 -35 86
-15 19 10 41 17 48 14 7 -3 15 4 17 17 l4 22 8 -22 c7 -22 8 -22 38 -6 17 8
63 17 103 19 65 3 72 1 77 -16 3 -11 1 -18 -4 -14 -5 3 -9 -4 -9 -15 0 -26 17
-36 36 -20 18 14 55 -2 91 -40 12 -13 29 -21 37 -18 8 3 17 -2 21 -11 6 -14 8
-13 16 7 9 23 10 23 28 6 11 -9 28 -14 38 -11 19 6 74 -37 86 -67 3 -9 14 -14
26 -12 11 2 25 -3 31 -10 13 -15 39 -10 56 12 9 11 17 11 38 2 27 -13 38 -46
11 -35 -8 3 -15 4 -15 3 0 -1 -4 -16 -9 -33 -7 -26 -6 -31 8 -30 10 1 17 -8
19 -22 4 -29 29 -40 45 -20 7 9 22 18 35 21 19 4 22 1 22 -24 0 -16 5 -29 10
-29 6 0 10 5 10 10 0 6 7 10 15 10 8 0 15 -7 15 -15 0 -8 9 -15 19 -15 10 0
21 -7 25 -15 7 -18 -1 -19 -43 -4 -25 9 -35 9 -44 -1 -9 -10 -9 -11 0 -6 6 3
14 2 18 -4 3 -5 15 -10 26 -10 11 0 22 -6 25 -14 3 -8 13 -12 25 -9 11 3 16
10 12 17 -11 17 -15 38 -14 74 1 17 -4 32 -9 32 -6 0 -10 7 -10 15 0 8 4 15 8
15 18 0 32 -26 32 -58 0 -29 2 -33 15 -22 15 12 39 5 30 -10 -9 -15 6 -39 21
-33 8 3 14 0 14 -6 0 -6 5 -11 12 -11 6 0 4 8 -6 19 -13 14 -14 21 -6 26 24
15 40 -41 19 -62 -8 -8 -8 -19 2 -41 12 -27 15 -29 42 -20 21 8 32 7 40 -2 9
-10 9 -14 0 -17 -10 -4 -10 -7 0 -18 7 -7 15 -11 19 -9 4 3 19 -11 35 -31 34
-42 46 -45 37 -7 -5 21 -4 25 6 15 7 -6 19 -9 26 -6 21 8 17 -10 -5 -24 -23
-14 -24 -70 -2 -96 17 -21 10 -53 -12 -49 -22 4 -21 1 4 -43 24 -39 51 -59 90
-64 6 0 8 -10 4 -21 -5 -14 -2 -20 9 -20 9 0 16 6 16 14 0 22 15 27 42 16 23
-10 23 -10 1 -6 -15 3 -23 -1 -23 -10 0 -8 -5 -14 -11 -14 -6 0 -9 -6 -6 -14
3 -8 -1 -17 -9 -20 -20 -8 -8 -26 17 -26 10 0 19 -5 19 -10 0 -6 8 -10 18 -8
12 2 16 -3 14 -17 -10 -56 -7 -92 6 -88 7 3 10 13 7 23 -3 11 0 20 10 24 20 7
20 -27 0 -44 -21 -17 -19 -30 5 -30 29 0 44 -35 26 -62 -13 -21 -13 -25 8 -49
12 -14 26 -24 31 -22 6 1 11 -12 12 -31 1 -19 9 -46 18 -60 16 -24 16 -26 1
-32 -25 -10 -19 -31 12 -39 27 -7 27 -7 5 -16 -30 -11 -29 -23 2 -47 20 -16
22 -21 10 -26 -8 -3 -15 -2 -15 2 0 4 -11 8 -25 8 -31 2 -33 -13 -2 -18 14 -2
23 -11 25 -25 2 -15 10 -23 22 -23 13 0 17 -5 13 -21 -3 -11 -12 -23 -19 -26
-23 -9 -16 -20 19 -28 31 -7 32 -7 7 -15 -16 -4 -31 -2 -41 7 -18 15 -29 17
-29 5 0 -5 11 -14 24 -20 14 -6 26 -21 28 -34 2 -13 9 -22 16 -20 6 1 12 -3
12 -9 0 -16 -36 -59 -44 -52 -3 3 -6 1 -6 -6 0 -9 9 -12 25 -9 28 6 54 -15 34
-27 -6 -4 -14 -4 -18 1 -3 5 -19 10 -36 11 l-30 2 23 -16 c26 -19 28 -38 5
-52 -10 -6 -13 -11 -8 -11 6 0 21 7 33 15 18 13 24 14 36 3 12 -11 11 -16 -6
-35 l-20 -22 21 -23 c12 -12 17 -24 11 -26 -5 -2 -10 -10 -10 -19 0 -23 33
-73 48 -73 9 0 10 -5 3 -19 -8 -14 -7 -20 4 -25 8 -3 15 -14 15 -25 0 -14 5
-19 15 -15 17 7 21 -11 5 -21 -6 -4 -8 -11 -4 -16 3 -5 9 -7 14 -4 5 3 11 1
14 -4 4 -5 2 -13 -4 -16 -8 -5 -7 -11 1 -21 9 -11 7 -14 -11 -14 -15 0 -20 -4
-17 -15 7 -17 -9 -30 -18 -15 -13 21 -24 9 -13 -15 9 -19 16 -24 32 -19 12 3
29 8 39 11 14 4 18 0 15 -14 -2 -10 -10 -17 -16 -16 -18 4 -14 -12 6 -31 13
-11 19 -31 20 -61 0 -53 -15 -59 -41 -15 -10 17 -22 30 -28 30 -15 0 -10 -30
6 -36 20 -8 19 -20 -5 -44 -11 -11 -20 -17 -20 -13 0 3 -9 -2 -20 -12 -11 -10
-20 -28 -19 -39 0 -21 0 -21 16 2 17 25 53 30 53 7 0 -8 6 -15 13 -15 9 0 8
-3 -2 -9 -8 -5 -10 -14 -6 -22 5 -8 -1 -6 -12 4 -32 28 -39 20 -10 -11 l27
-29 -24 -26 c-13 -14 -27 -34 -30 -44 -3 -10 -19 -24 -36 -31 -32 -15 -40 -32
-14 -32 8 0 12 5 9 10 -3 6 1 10 9 10 19 0 30 -17 16 -25 -18 -11 -10 -33 15
-39 14 -4 25 -11 25 -17 0 -6 4 -8 8 -5 4 2 14 0 22 -5 12 -7 12 -11 2 -17 -9
-6 -6 -12 13 -20 14 -6 25 -17 25 -24 0 -24 -18 -41 -35 -34 -11 4 -15 2 -12
-6 2 -7 13 -12 25 -11 11 1 26 -4 32 -12 9 -11 9 -15 1 -15 -6 0 -11 6 -11 13
0 8 -3 8 -9 -2 -5 -8 -16 -11 -25 -8 -9 4 -15 3 -15 -1 3 -21 -3 -30 -26 -36
-14 -4 -25 -11 -25 -16 0 -6 -11 -20 -25 -32 -28 -25 -32 -38 -10 -38 8 0 15
7 15 15 0 8 2 15 4 15 2 0 13 3 23 6 13 4 14 3 5 -3 -10 -7 -10 -16 -2 -37 8
-23 13 -26 24 -17 10 8 16 9 21 1 3 -5 19 -10 34 -10 38 0 49 -36 20 -66 -19
-20 -19 -22 -3 -26 15 -3 14 -7 -8 -33 -25 -30 -40 -64 -43 -98 -1 -11 -8 -23
-16 -28 -11 -7 -11 -9 -1 -9 8 0 19 14 25 30 7 20 17 28 26 25 7 -3 20 0 27 6
11 9 14 9 14 0 0 -17 -27 -49 -65 -76 -18 -13 -18 -17 -5 -27 34 -28 40 -44
30 -76 -5 -21 -5 -32 2 -32 5 0 8 -6 5 -12 -4 -15 -39 -18 -49 -4 -7 11 11 56
24 56 4 0 8 5 8 12 0 6 -7 4 -18 -5 -10 -10 -24 -17 -30 -17 -7 0 -12 -7 -12
-16 0 -11 -6 -14 -20 -9 -24 8 -25 0 -5 -38 13 -26 13 -28 -3 -23 -20 7 -54
-13 -35 -20 17 -7 4 -34 -13 -27 -12 4 -14 0 -8 -23 4 -16 11 -34 16 -40 4 -6
6 -19 2 -28 -3 -9 -1 -16 5 -16 13 0 14 15 2 58 -11 37 -9 38 24 16 15 -10 25
-12 25 -5 0 6 9 11 20 11 24 0 27 -18 5 -26 -10 -4 -12 -10 -7 -18 14 -17 23
-74 13 -81 -14 -8 -32 21 -25 39 3 9 1 16 -4 16 -19 0 -23 -18 -10 -39 11 -18
9 -23 -10 -41 l-22 -20 -20 20 c-11 11 -25 20 -32 20 -6 0 -2 -9 11 -21 18
-17 21 -27 15 -52 -6 -27 -5 -30 8 -19 13 10 17 9 21 -10 7 -26 6 -34 -5 -31
-19 7 -6 -36 15 -50 12 -8 19 -18 14 -23 -4 -4 -13 -2 -19 4 -7 7 -21 12 -31
12 -15 0 -18 5 -15 25 4 21 3 23 -13 14 -22 -11 -22 -10 -9 -45 8 -21 8 -30
-2 -36 -9 -6 -6 -7 9 -3 18 5 21 2 16 -17 -4 -22 -4 -22 11 -4 22 27 29 15 21
-33 -7 -40 -19 -53 -27 -29 -3 8 -10 7 -27 -4 l-22 -15 22 -6 c14 -4 20 -11
16 -20 -3 -8 -2 -30 3 -50 7 -31 4 -38 -19 -56 -22 -18 -24 -23 -11 -31 12 -8
11 -10 -6 -10 -12 0 -25 -7 -28 -16 -4 -11 -2 -15 7 -11 8 3 20 1 28 -4 11 -7
12 -12 2 -28 -8 -13 -10 -29 -5 -43 11 -30 4 -58 -14 -58 -8 0 -14 -4 -14 -10
0 -5 -9 -10 -20 -10 -30 0 -24 -18 7 -22 18 -2 29 -10 32 -23 3 -16 1 -17 -12
-7 -15 13 -51 6 -42 -8 3 -5 -1 -14 -8 -22 -19 -19 -28 -46 -17 -53 6 -4 10
-15 10 -26 0 -10 5 -19 10 -19 6 0 10 10 10 22 0 21 1 21 17 6 13 -14 14 -20
4 -32 -9 -11 -9 -15 0 -18 7 -2 9 -10 5 -17 -6 -9 -13 -7 -28 8 -10 12 -23 19
-28 16 -14 -8 0 -35 17 -35 13 0 13 -3 3 -15 -7 -9 -19 -14 -27 -11 -8 4 -11
1 -8 -5 8 -11 -25 -40 -37 -33 -16 10 -7 -6 14 -26 12 -11 19 -22 16 -25 -3
-3 -12 0 -19 8 -19 18 -66 30 -74 17 -3 -5 -12 -7 -20 -3 -8 3 -15 0 -15 -6 0
-14 36 -51 50 -51 6 0 10 -5 10 -11 0 -6 -7 -9 -15 -6 -8 4 -17 2 -21 -4 -3
-6 -13 -8 -21 -4 -9 3 -24 -2 -35 -11 -17 -16 -19 -16 -39 4 -11 12 -26 22
-34 22 -7 0 -16 6 -18 13 -3 7 -6 7 -6 1 -1 -6 10 -23 24 -38 27 -29 25 -57
-2 -31 -11 12 -19 13 -28 5 -10 -8 -16 -7 -24 7 -9 17 -11 17 -25 -2 -8 -11
-13 -28 -10 -37 6 -21 -5 -62 -14 -54 -3 4 -7 27 -8 52 -2 53 -2 53 -40 56
-16 1 -35 9 -42 18 -11 13 -11 11 -2 -7 9 -19 8 -23 -5 -23 -8 0 -15 -7 -15
-16 0 -8 -5 -12 -10 -9 -6 4 -8 10 -5 15 5 8 -25 21 -55 24 -10 1 -15 12 -15
36 0 28 4 35 24 40 14 3 26 11 29 18 5 16 -10 15 -28 0 -8 -8 -7 -3 3 14 21
33 21 38 3 38 -8 0 -17 -7 -20 -16 -5 -12 -10 -14 -20 -5 -14 12 -26 5 -26
-16 0 -7 9 -13 20 -13 11 0 20 -4 20 -8 0 -12 -61 -45 -68 -37 -4 4 -1 10 6
12 14 5 17 33 3 33 -5 0 -11 -6 -14 -12 -2 -7 -12 4 -22 25 -11 20 -23 37 -29
37 -5 0 -17 6 -25 14 -21 19 -140 39 -217 37 -47 -2 -74 4 -120 25 -63 28
-144 35 -170 13 -11 -9 -18 -8 -31 2 -10 7 -20 15 -22 16 -2 1 2 10 9 18 12
14 9 20 -16 40 -16 14 -32 24 -36 25 -5 0 -19 10 -34 22 -14 13 -31 23 -37 24
-7 0 -27 7 -44 15 -26 10 -32 18 -27 34 3 11 8 28 10 38 4 13 -1 17 -20 17
-19 0 -26 -5 -26 -20 0 -11 -7 -20 -15 -20 -8 0 -15 -6 -15 -14 0 -10 -16 -17
-47 -22 -27 -5 -51 -9 -55 -10 -5 -1 -14 -2 -21 -3 -7 0 -40 -26 -72 -56 -37
-34 -63 -51 -69 -45 -12 12 -66 1 -88 -18 -10 -8 -17 -22 -16 -31 3 -35 -3
-50 -19 -53 -22 -5 -83 13 -83 23 0 12 -78 31 -99 24 -12 -3 -22 2 -30 18 -12
22 -60 49 -90 51 -8 1 -16 7 -19 14 -2 6 -10 12 -18 12 -8 0 -14 5 -14 11 0 6
-8 9 -19 6 -10 -2 -25 -1 -32 4 -17 9 -118 -23 -129 -40 -3 -7 -13 -9 -22 -6
-8 3 -21 -1 -28 -10 -7 -8 -19 -15 -28 -15 -26 0 -77 -46 -102 -94 -16 -29
-34 -48 -50 -52 -29 -8 -61 -6 -73 6 -5 4 -20 2 -34 -5 -14 -7 -41 -11 -63 -8
-22 3 -47 2 -57 -2 -27 -12 -113 -15 -113 -4 0 5 -14 7 -32 3 -18 -3 -51 -7
-73 -8 -27 -2 -49 -11 -69 -29 -16 -15 -35 -27 -43 -27 -22 0 -121 -111 -127
-142 -3 -16 -12 -28 -20 -28 -9 0 -13 -6 -11 -12 6 -16 -22 -48 -60 -70 -25
-14 -33 -14 -48 -3 -10 7 -14 16 -9 19 6 3 8 15 5 27 -4 12 0 25 8 29 7 5 10
12 7 16 -4 3 -19 -6 -34 -21 -19 -19 -30 -23 -37 -16 -6 6 -14 11 -18 11 -13
0 -19 -33 -8 -46 9 -11 6 -14 -17 -14 -21 0 -25 -3 -16 -12 17 -17 -5 -43 -24
-27 -9 7 -14 8 -14 1 0 -14 -47 -21 -59 -9 -6 6 -11 29 -11 50 0 30 -3 38 -14
34 -10 -4 -13 -1 -9 9 3 7 0 14 -6 14 -6 0 -11 -4 -11 -8 0 -5 -11 -14 -25
-20 -14 -6 -25 -18 -25 -26 0 -7 -10 -16 -22 -19 -28 -8 -34 -2 -19 17 15 18
8 72 -9 68 -8 -2 -10 3 -6 14 5 12 2 15 -9 10 -10 -3 -18 1 -22 11 -4 9 -1 19
5 21 7 2 12 8 12 14 0 5 -9 7 -19 3 -29 -9 -73 5 -67 21 3 8 -3 18 -14 24 -26
14 -33 13 -26 -5 3 -8 1 -15 -4 -15 -15 0 -25 23 -25 60 0 30 -4 36 -25 38
-13 2 -35 16 -48 30 -16 18 -26 23 -29 15 -2 -7 -11 -13 -19 -13 -9 0 -12 -4
-9 -10 3 -5 1 -10 -4 -10 -15 0 -14 13 4 36 20 27 19 34 -7 34 -22 1 -22 1 -5
14 12 9 14 15 6 18 -6 2 -12 18 -13 35 -1 29 -4 32 -26 26 l-25 -5 22 16 c33
25 21 79 -16 69 -13 -3 -21 2 -25 15 -4 11 -13 23 -21 26 -21 8 -19 44 1 42 9
0 19 5 22 13 3 8 0 11 -6 7 -6 -4 -19 5 -28 19 -17 26 -49 33 -57 13 -3 -7 -6
-1 -6 14 -1 29 14 47 22 26 2 -7 7 -10 11 -6 4 3 2 16 -4 28 -6 12 -9 28 -6
36 3 8 2 13 -2 10 -4 -2 -8 7 -9 21 -1 19 1 22 8 12 8 -12 10 -12 18 0 6 9 5
19 -4 28 -18 18 -22 17 -53 -12 -32 -30 -48 -27 -45 9 1 14 -2 24 -8 21 -5 -4
-9 -2 -9 4 0 5 4 13 10 16 14 8 8 56 -7 62 -9 4 -10 10 -3 23 15 28 12 40 -7
33 -10 -3 -15 -3 -11 2 4 4 2 15 -5 23 -10 12 -9 16 1 20 9 3 10 8 3 16 -6 6
-12 28 -14 47 -2 19 -5 39 -8 44 -9 17 -26 87 -43 174 -9 46 -23 97 -31 113
-29 58 -42 521 -15 553 7 8 10 25 6 38 -3 13 -3 27 1 31 4 4 9 14 12 24 9 31
9 482 0 488 -5 3 -5 12 0 22 6 11 1 41 -15 90 -30 93 -52 387 -29 396 6 2 5 9
-2 17 -19 19 -16 29 10 29 18 0 19 2 7 10 -12 7 -13 13 -4 28 8 12 9 25 2 38
-9 17 -8 18 5 2 17 -21 37 -6 37 30 0 14 4 21 11 16 7 -4 7 1 -1 16 -10 19 -9
22 9 27 11 3 18 10 15 15 -4 6 2 7 17 3 20 -6 22 -5 12 6 -19 19 -16 28 7 22
14 -4 20 0 20 12 0 12 5 15 16 11 12 -4 15 -2 10 9 -4 11 1 15 20 15 21 0 24
4 19 20 -5 15 -2 20 12 20 18 0 59 58 48 68 -3 3 -5 0 -5 -6 0 -7 -9 -12 -20
-12 -14 0 -20 7 -20 23 0 30 -10 40 -27 26 -7 -6 -13 -7 -13 -3 0 5 9 15 21
22 11 7 18 19 15 27 -3 8 -1 28 4 44 7 26 6 31 -8 31 -9 0 -26 7 -36 15 -19
15 -19 15 3 15 14 0 21 5 19 13 -3 6 -10 12 -15 12 -6 0 -15 3 -19 8 -4 4 0 7
9 7 9 0 17 7 17 15 0 8 -6 15 -12 15 -9 0 -8 4 2 10 12 8 12 10 1 10 -10 0
-12 10 -7 43 4 23 11 46 16 51 5 5 1 19 -10 33 -19 25 -19 25 7 49 14 13 30
24 34 24 5 0 9 5 9 11 0 6 -7 9 -15 6 -8 -4 -17 -2 -20 3 -4 6 -1 10 6 10 8 0
8 4 -1 15 -7 9 -19 14 -27 11 -7 -3 -13 -1 -13 4 0 6 5 10 11 10 8 0 7 5 -1
15 -16 19 -5 32 13 17 17 -15 28 -5 19 16 -5 15 -4 15 11 3 9 -7 17 -9 17 -3
0 5 -6 12 -14 15 -9 4 -12 14 -9 25 2 11 0 23 -6 26 -6 4 -11 15 -11 25 0 23
26 46 35 31 10 -16 28 -12 21 6 -5 12 -1 14 16 9 18 -6 20 -4 15 14 -3 11 -1
24 4 27 5 3 9 14 9 25 0 11 7 19 18 19 28 0 40 13 47 53 6 32 5 37 -11 38 -16
1 -17 2 -2 6 9 2 27 -1 39 -8 20 -10 21 -9 15 10 -17 58 -18 67 -1 39 8 -16
18 -28 21 -28 3 0 3 4 0 9 -9 14 20 21 33 8 13 -13 64 30 57 50 -7 18 10 25
55 25 21 -1 39 3 39 9 0 5 -7 9 -15 9 -8 0 -15 8 -15 19 0 10 -8 25 -17 32
-15 11 -16 11 -5 -1 6 -8 12 -22 12 -32 0 -14 -5 -17 -24 -12 -20 5 -27 0 -38
-21 -13 -24 -16 -25 -28 -10 -7 8 -10 19 -6 22 4 4 11 1 16 -7 8 -13 10 -13
10 1 0 9 7 19 15 23 8 3 14 13 13 23 -3 38 2 54 15 46 6 -4 26 -8 44 -10 29
-2 31 0 21 16 -14 24 -2 71 19 71 9 0 21 -7 28 -17 8 -10 19 -14 30 -10 14 6
15 10 5 22 -7 8 -9 15 -4 15 12 1 80 62 83 75 2 6 7 9 12 8 5 -2 9 1 9 6 0 5
11 12 25 15 24 6 36 26 15 26 -12 0 -13 10 0 30 7 12 12 12 29 -4 21 -19 21
-19 40 2 10 12 26 22 35 22 9 0 16 4 16 8 0 5 18 8 40 8 32 -1 39 2 35 14 -4
12 6 15 51 16 34 1 60 7 64 14 5 8 33 14 72 15 35 1 75 8 88 16 14 7 31 12 39
10 9 -2 12 4 8 18 -3 12 -1 24 4 27 5 3 9 -1 9 -8 0 -15 34 -40 68 -50 18 -5
21 -4 12 6 -8 11 -3 15 21 20 22 4 30 10 25 21 -4 12 0 14 22 9 15 -4 28 -11
30 -16 2 -4 21 -5 43 -2 26 4 39 3 39 -5 0 -19 17 -12 23 10 5 17 9 19 27 9
11 -6 29 -9 38 -6 10 3 32 2 50 -3 17 -5 32 -6 32 -1 0 17 54 18 66 2 10 -14
15 -14 25 -5 10 10 16 10 27 1 10 -9 16 -8 23 3 14 23 11 26 -26 22 -20 -2
-35 1 -35 7 0 5 5 10 10 10 18 0 10 22 -10 27 -11 3 -18 9 -15 13 3 5 13 6 23
3 12 -3 25 4 36 21 21 33 31 33 66 -3z m1060 -25 c0 -11 -19 -15 -25 -6 -3 5
1 10 9 10 9 0 16 -2 16 -4z m-1190 -31 c-7 -9 -15 -13 -17 -11 -7 7 7 26 19
26 6 0 6 -6 -2 -15z m-40 -9 c0 -10 -10 -13 -32 -12 -48 4 -50 5 -43 16 10 16
75 12 75 -4z m-350 -16 c0 -5 -7 -10 -15 -10 -8 0 -15 5 -15 10 0 6 7 10 15
10 8 0 15 -4 15 -10z m1190 -35 c-7 -9 -15 -13 -17 -11 -7 7 7 26 19 26 6 0 6
-6 -2 -15z m936 -32 c-10 -10 -19 5 -10 18 6 11 8 11 12 0 2 -7 1 -15 -2 -18z
m-2726 -57 c0 -3 -4 -8 -10 -11 -5 -3 -10 -1 -10 4 0 6 5 11 10 11 6 0 10 -2
10 -4z m-45 -77 c11 -17 0 -20 -21 -4 -17 13 -17 14 -2 15 9 0 20 -5 23 -11z
m-110 -73 c10 -10 11 -16 2 -25 -16 -16 -24 -14 -30 8 -8 31 6 40 28 17z
m-135 -6 c0 -5 -5 -10 -11 -10 -5 0 -7 5 -4 10 3 6 8 10 11 10 2 0 4 -4 4 -10z
m34 -19 c3 -5 -1 -14 -9 -21 -13 -10 -15 -9 -15 9 0 21 14 28 24 12z m3580
-117 c3 -8 2 -12 -4 -9 -6 3 -10 10 -10 16 0 14 7 11 14 -7z m46 6 c0 -5 -2
-10 -4 -10 -3 0 -8 5 -11 10 -3 6 -1 10 4 10 6 0 11 -4 11 -10z m-3750 -59 c0
-5 -7 -12 -16 -15 -14 -5 -15 -4 -4 9 14 17 20 19 20 6z m3938 -174 c7 -8 6
-18 -5 -32 -12 -16 -14 -16 -10 -3 4 11 -2 23 -16 33 -21 15 -21 15 0 15 11 0
25 -6 31 -13z m-4133 -86 c-3 -12 -11 -21 -16 -21 -6 0 -8 3 -6 8 2 4 7 16 11
26 9 25 20 13 11 -13z m4185 -35 c0 -2 -7 -7 -16 -10 -8 -3 -12 -2 -9 4 6 10
25 14 25 6z m-4300 -41 c-7 -9 -15 -13 -17 -11 -7 7 7 26 19 26 6 0 6 -6 -2
-15z m4395 -113 c-3 -3 -11 0 -18 7 -9 10 -8 11 6 5 10 -3 15 -9 12 -12z m70
-125 c14 -11 15 -16 5 -22 -8 -5 -15 -4 -17 2 -2 6 -13 9 -23 6 -22 -6 -28 12
-7 20 19 8 22 8 42 -6z m-5 -104 c0 -13 -3 -13 -15 -3 -8 7 -12 16 -9 21 8 13
24 1 24 -18z m40 23 c0 -3 -4 -8 -10 -11 -5 -3 -10 -1 -10 4 0 6 5 11 10 11 6
0 10 -2 10 -4z m160 -850 c0 -3 -4 -8 -10 -11 -5 -3 -10 -1 -10 4 0 6 5 11 10
11 6 0 10 -2 10 -4z m45 -466 c-3 -5 -14 -10 -23 -10 -15 0 -15 2 -2 10 20 13
33 13 25 0z m3 -45 c0 -14 -5 -25 -10 -25 -5 0 -6 5 -3 10 3 6 1 10 -6 10 -8
0 -8 4 1 15 16 20 18 19 18 -10z m-24 -94 c3 -4 -3 -19 -14 -31 -21 -24 -27
-12 -10 21 12 21 16 23 24 10z m-57 -55 c-4 -9 2 -17 12 -21 13 -4 17 -12 14
-24 -3 -13 1 -20 12 -23 15 -3 15 -5 -4 -22 -21 -19 -21 -19 -21 7 0 15 -4 27
-10 27 -12 0 -24 45 -15 59 9 16 18 13 12 -3z m107 -27 c-2 -4 1 -11 6 -14 7
-4 9 -19 5 -35 -5 -21 -2 -31 12 -39 10 -6 12 -11 6 -11 -24 0 -28 2 -25 12 2
6 -4 8 -11 5 -11 -4 -13 0 -10 14 3 10 9 19 14 19 5 0 9 7 9 15 0 8 -3 14 -7
14 -20 -3 -24 2 -13 16 10 12 9 15 -6 15 -16 0 -16 2 -4 10 15 9 33 -7 24 -21z
m56 -189 c0 -5 -5 -10 -11 -10 -5 0 -7 5 -4 10 3 6 8 10 11 10 2 0 4 -4 4 -10z
m-90 -80 c0 -5 -4 -10 -10 -10 -5 0 -10 5 -10 10 0 6 5 10 10 10 6 0 10 -4 10
-10z m40 -20 c0 -5 -2 -10 -4 -10 -3 0 -8 5 -11 10 -3 6 -1 10 4 10 6 0 11 -4
11 -10z m-60 -16 c0 -8 -4 -12 -10 -9 -5 3 -10 10 -10 16 0 5 5 9 10 9 6 0 10
-7 10 -16z m60 -54 c0 -5 -8 -10 -17 -10 -15 0 -16 2 -3 10 19 12 20 12 20 0z
m40 -41 c12 -22 -4 -54 -21 -43 -14 9 -10 24 6 24 13 0 14 4 5 20 -6 11 -8 20
-6 20 3 0 10 -9 16 -21z m60 -70 c0 -5 -4 -9 -10 -9 -5 0 -10 7 -10 16 0 8 5
12 10 9 6 -3 10 -10 10 -16z m-82 -37 c2 -7 -2 -10 -12 -6 -11 4 -16 0 -16
-12 0 -9 -3 -15 -6 -11 -3 3 -3 15 1 27 7 22 26 23 33 2z m82 -18 c0 -8 -4
-14 -10 -14 -5 0 -10 9 -10 21 0 11 5 17 10 14 6 -3 10 -13 10 -21z m-135
-164 c3 -5 1 -10 -4 -10 -6 0 -11 5 -11 10 0 6 2 10 4 10 3 0 8 -4 11 -10z
m-61 -168 c-18 -4 -20 -3 -28 25 l-7 23 25 -23 c20 -17 22 -23 10 -25z m876
-22 c0 -5 -4 -10 -9 -10 -6 0 -13 5 -16 10 -3 6 1 10 9 10 9 0 16 -4 16 -10z
m-890 -15 c0 -8 -2 -15 -4 -15 -2 0 -6 7 -10 15 -3 8 -1 15 4 15 6 0 10 -7 10
-15z m163 -5 c3 -11 1 -20 -4 -20 -5 0 -9 9 -9 20 0 11 2 20 4 20 2 0 6 -9 9
-20z m227 10 c0 -5 -2 -10 -4 -10 -3 0 -8 5 -11 10 -3 6 -1 10 4 10 6 0 11 -4
11 -10z m-424 -27 c-10 -10 -19 5 -10 18 6 11 8 11 12 0 2 -7 1 -15 -2 -18z
m82 -64 c-19 -12 -25 -11 -25 5 0 8 8 11 20 8 14 -4 16 -7 5 -13z m334 -21
c-9 -9 -15 -9 -24 0 -9 9 -7 12 12 12 19 0 21 -3 12 -12z m271 -128 c-15 -17
-38 -30 -50 -30 -14 0 -23 -6 -23 -15 0 -8 -7 -15 -15 -15 -16 0 -21 25 -6 34
5 3 7 14 4 25 -3 13 4 23 27 34 17 9 37 14 44 11 7 -3 19 3 27 12 13 16 14 16
17 -4 2 -14 -7 -34 -25 -52z m-667 15 c-25 -19 -41 -19 -24 0 7 8 20 14 28 14
11 0 10 -3 -4 -14z m498 -77 c-2 -3 6 -8 18 -10 19 -2 22 -8 20 -33 -5 -39
-21 -58 -44 -52 -10 3 -18 1 -18 -5 0 -5 -5 -6 -10 -3 -6 4 -16 3 -23 -2 -7
-6 -29 -6 -52 -1 -38 8 -41 11 -40 41 3 65 3 66 43 69 62 5 111 4 106 -4z
m-5869 -47 c-3 -6 -11 -11 -17 -11 -6 0 -6 6 2 15 14 17 26 13 15 -4z m815
-331 c0 -5 -4 -10 -10 -10 -5 0 -10 5 -10 10 0 6 5 10 10 10 6 0 10 -4 10 -10z
m-20 -40 c0 -5 -2 -10 -4 -10 -3 0 -8 5 -11 10 -3 6 -1 10 4 10 6 0 11 -4 11
-10z m4510 -84 c0 -3 -4 -8 -10 -11 -5 -3 -10 -1 -10 4 0 6 5 11 10 11 6 0 10
-2 10 -4z m-4340 -266 c0 -5 -4 -10 -10 -10 -5 0 -10 5 -10 10 0 6 5 10 10 10
6 0 10 -4 10 -10z m70 -140 c0 -5 -5 -10 -11 -10 -5 0 -7 5 -4 10 3 6 8 10 11
10 2 0 4 -4 4 -10z m100 -5 c0 -19 -23 -25 -43 -10 -20 15 -17 20 17 21 15 1
26 -3 26 -11z m3944 0 c-4 -8 -10 -15 -15 -15 -5 0 -9 7 -9 15 0 8 7 15 15 15
9 0 12 -6 9 -15z m66 -15 c0 -5 -7 -10 -16 -10 -8 0 -12 5 -9 10 3 6 10 10 16
10 5 0 9 -4 9 -10z m-550 -31 c0 -5 -4 -9 -10 -9 -5 0 -10 7 -10 16 0 8 5 12
10 9 6 -3 10 -10 10 -16z m-1050 -24 c32 -17 70 -20 70 -6 0 6 13 6 33 0 17
-6 51 -10 75 -10 23 0 42 -4 42 -10 0 -7 14 -10 35 -7 19 2 35 0 35 -4 0 -4 7
-8 15 -8 8 0 15 -5 15 -11 0 -5 14 -15 30 -20 17 -6 30 -14 30 -17 0 -4 3 -18
7 -31 5 -22 4 -23 -21 -19 -19 4 -29 0 -37 -14 -5 -10 -15 -18 -22 -17 -31 4
-36 -2 -30 -31 5 -26 3 -30 -16 -30 -12 0 -29 -4 -39 -9 -27 -15 -56 -24 -68
-22 -7 1 -15 -6 -18 -15 -3 -9 -13 -14 -20 -11 -15 6 -71 -31 -62 -41 10 -10
56 -11 62 -1 3 5 10 6 16 3 6 -4 33 -6 61 -5 31 0 54 -4 59 -12 11 -17 10 -29
-2 -22 -5 3 -10 -1 -10 -9 0 -9 5 -16 11 -16 5 0 7 -4 4 -10 -3 -5 -1 -10 5
-10 20 0 37 -25 36 -53 -1 -22 3 -27 21 -27 13 0 26 6 29 14 4 10 18 12 50 8
40 -4 44 -3 38 14 -5 18 -5 18 10 0 15 -19 16 -19 36 -1 18 16 20 16 20 2 0
-21 14 -22 30 -2 7 8 23 15 37 15 20 0 23 4 18 21 -5 15 -2 22 12 25 28 8 56
51 45 70 -15 27 -2 64 22 64 12 0 27 -5 33 -11 6 -6 29 -12 52 -15 34 -3 41
-1 41 15 0 23 -29 81 -41 81 -15 0 -10 30 6 36 20 8 72 -14 79 -32 3 -8 12
-14 20 -14 8 0 27 -16 41 -35 23 -29 26 -41 22 -85 -4 -40 -2 -50 10 -50 9 0
13 6 10 14 -7 18 39 27 96 20 23 -3 62 -1 87 5 37 8 48 7 60 -5 13 -13 11 -14
-19 -12 -20 2 -36 -2 -38 -9 -3 -7 2 -13 11 -13 10 0 13 -6 9 -16 -4 -10 1
-17 14 -20 15 -4 19 -12 15 -30 -2 -13 -11 -24 -18 -24 -13 0 -18 -12 -15 -37
1 -8 -10 -10 -34 -6 -28 4 -40 1 -54 -13 -10 -11 -16 -25 -13 -32 7 -21 32
-13 42 14 7 16 16 24 27 22 26 -5 28 -35 4 -43 -12 -3 -21 -11 -21 -16 0 -6 9
-8 19 -4 19 6 39 -11 27 -22 -3 -4 -19 -6 -36 -6 -16 0 -30 -3 -30 -7 0 -3
-13 -13 -29 -23 -22 -13 -30 -14 -34 -5 -2 7 -8 10 -12 6 -4 -4 0 -19 9 -32
20 -32 21 -52 0 -32 -22 22 -24 20 -14 -13 9 -33 5 -42 -16 -34 -8 3 -14 0
-14 -6 0 -6 -17 -27 -37 -46 l-38 -36 38 15 c20 8 37 12 37 8 0 -8 -24 -42
-50 -71 -27 -30 -43 -69 -44 -108 -1 -30 -5 -38 -19 -36 -12 1 -17 -4 -13 -14
7 -17 -13 -39 -40 -45 -12 -2 -21 -14 -24 -33 -5 -28 -6 -29 -18 -10 -12 19
-13 19 -33 -7 -11 -16 -27 -28 -35 -28 -8 0 -14 -9 -14 -19 0 -10 -8 -22 -17
-25 -15 -6 -15 -8 -3 -16 12 -8 12 -10 -3 -16 -11 -4 -17 -17 -17 -40 0 -19
-4 -34 -10 -34 -5 0 -10 -8 -10 -19 0 -17 -3 -18 -57 -5 -49 11 -60 11 -73 -1
-9 -8 -20 -15 -23 -15 -4 0 -17 -10 -28 -21 l-21 -21 -22 26 c-13 16 -31 26
-46 26 -14 0 -44 3 -66 6 -44 6 -66 -8 -45 -29 34 -34 -10 -36 -51 -2 -29 24
-83 32 -94 13 -3 -4 -14 -8 -25 -8 -10 0 -19 -4 -19 -10 0 -5 5 -10 11 -10 8
0 7 -6 -2 -16 -12 -15 -11 -16 11 -9 l25 7 -22 -24 c-13 -13 -23 -30 -23 -36
0 -7 -7 -12 -15 -12 -8 0 -24 -5 -34 -12 -15 -9 -25 -9 -46 0 -14 7 -35 12
-47 12 -12 0 -19 3 -15 6 3 4 0 13 -8 20 -8 8 -12 21 -9 29 4 9 -3 16 -20 21
-20 5 -30 1 -45 -17 -11 -13 -16 -25 -11 -27 17 -6 0 -84 -27 -120 -15 -20
-31 -40 -36 -43 -4 -3 -16 -21 -25 -40 -23 -46 -46 -49 -63 -7 -7 18 -11 45
-10 61 1 15 -4 34 -13 42 -18 19 -66 20 -66 2 0 -15 -15 -18 -74 -17 -45 1
-62 12 -72 43 -3 12 -13 30 -22 40 -8 9 -10 17 -5 17 13 0 11 49 -4 74 -10 18
-12 16 -28 -17 -9 -21 -21 -37 -26 -37 -5 0 -9 -10 -9 -22 0 -13 -7 -32 -15
-42 -12 -16 -18 -17 -27 -8 -10 10 -10 15 2 22 17 10 16 12 -26 32 -42 20 -65
8 -58 -30 4 -19 0 -32 -10 -41 -13 -11 -19 -9 -39 12 -19 18 -32 23 -56 19
-38 -5 -52 19 -27 47 16 18 15 19 -18 25 -18 4 -46 16 -60 27 -22 17 -33 20
-23 5 1 -2 -6 -13 -15 -23 -14 -15 -15 -22 -6 -31 16 -16 2 -15 -50 3 -38 13
-47 14 -75 1 -74 -33 -98 -25 -93 32 4 50 -11 72 -51 72 -23 0 -33 5 -33 15 0
8 -7 15 -15 15 -9 0 -18 7 -21 15 -4 8 -11 12 -18 8 -6 -4 -5 1 3 10 12 15 12
19 -5 31 -10 8 -23 12 -30 9 -7 -3 -10 5 -7 21 4 17 1 26 -7 26 -7 0 -10 7 -6
15 3 8 1 15 -4 15 -6 0 -10 -4 -10 -10 0 -5 -4 -10 -9 -10 -5 0 -8 19 -8 42 2
35 -2 44 -20 53 -16 9 -19 15 -11 23 15 15 2 43 -17 36 -8 -3 -15 -1 -15 5 0
7 9 15 20 19 18 7 18 10 6 34 -8 15 -11 30 -8 34 4 4 -1 4 -10 1 -18 -6 -21
-1 -33 63 -4 19 -11 40 -15 45 -4 6 -10 18 -13 27 -4 13 -2 16 11 12 14 -4 13
-3 -2 6 -14 10 -23 9 -42 -1 -25 -13 -31 -33 -14 -44 17 -11 11 -23 -10 -18
-24 6 -45 30 -45 52 0 9 -10 20 -22 26 -13 5 -23 13 -23 17 0 12 -77 58 -96
58 -10 0 -14 5 -11 15 4 8 2 17 -4 21 -6 3 -8 12 -5 19 3 8 0 16 -7 18 -9 3
-8 8 2 20 7 10 10 17 5 17 -5 0 0 7 10 15 11 8 14 15 8 15 -7 0 -12 7 -12 15
0 8 -5 15 -10 15 -7 0 -7 6 0 20 8 15 17 19 35 14 15 -4 25 -2 25 5 0 6 8 11
18 11 14 0 14 2 3 9 -12 8 -12 12 -2 25 7 9 17 13 22 11 4 -3 12 2 17 11 9 15
11 15 22 -6 11 -21 10 -22 -9 -17 -24 6 -38 -10 -22 -26 6 -6 11 -19 11 -29 0
-10 5 -18 11 -18 6 0 8 -7 5 -16 -4 -10 1 -25 10 -35 14 -15 20 -16 31 -7 8 7
24 13 35 15 22 4 48 26 48 43 0 7 8 9 20 5 14 -4 20 -2 18 7 -2 7 8 14 22 16
14 2 32 10 40 17 8 7 25 16 38 19 12 4 22 13 22 21 0 15 22 25 57 25 19 0 24
4 19 16 -5 14 -4 15 9 4 8 -7 15 -19 15 -27 0 -10 6 -13 15 -9 9 3 18 -1 22
-9 4 -12 8 -13 19 -4 11 9 18 8 32 -4 9 -8 33 -18 52 -22 19 -4 47 -14 62 -21
35 -18 49 -18 42 1 -8 21 -1 19 42 -10 21 -14 42 -22 48 -17 6 4 28 7 48 7 21
0 38 4 38 8 0 5 5 5 10 2 6 -3 10 -1 10 4 0 6 -7 11 -15 11 -8 0 -15 5 -15 11
0 6 6 9 14 6 8 -3 23 3 34 14 12 10 24 19 28 19 4 0 15 9 25 21 10 11 23 18
29 14 5 -3 13 1 16 9 3 9 12 16 20 16 16 0 16 5 8 38 -5 16 -14 22 -34 22 -38
0 -90 31 -90 53 0 18 -15 23 -25 7 -4 -6 -13 -5 -25 2 -10 7 -17 15 -14 20 7
11 -55 1 -71 -12 -16 -14 -75 -9 -75 6 0 17 47 64 65 64 8 0 15 5 15 10 0 6
11 10 24 10 13 0 44 16 69 35 25 19 51 35 57 35 6 0 13 7 16 15 7 17 60 13
102 -7 26 -13 68 5 77 33 5 14 11 16 33 9 38 -12 153 -19 177 -10 11 4 45 1
75 -7 96 -25 137 -26 176 -8 19 9 38 23 41 31 3 8 17 14 32 14 14 0 31 4 38 8
22 14 93 12 123 -3z m1228 -29 c2 -9 -2 -24 -9 -33 -12 -13 -14 -12 -21 13 -4
15 -5 31 -2 36 9 14 29 4 32 -16z m-12 -101 c9 -8 11 -15 6 -15 -5 0 -15 7
-22 15 -7 8 -9 15 -6 15 4 0 14 -7 22 -15z m-3126 -35 c0 -5 -4 -10 -10 -10
-5 0 -10 5 -10 10 0 6 5 10 10 10 6 0 10 -4 10 -10z m3140 -20 c0 -5 -4 -10
-9 -10 -5 0 -18 -3 -28 -6 -16 -6 -16 -5 2 9 23 19 35 21 35 7z m-3113 -33
c-15 -6 -25 -17 -23 -23 3 -7 -2 -15 -10 -18 -10 -4 -14 2 -14 18 0 27 12 35
50 34 l25 0 -28 -11z m23 -47 c0 -5 -4 -10 -10 -10 -5 0 -10 5 -10 10 0 6 5
10 10 10 6 0 10 -4 10 -10z m83 -118 c-4 -17 -11 -22 -24 -19 -11 3 -22 1 -25
-4 -3 -5 -10 -7 -15 -4 -17 11 -9 26 20 36 22 8 28 15 24 27 -5 15 -4 15 10 2
11 -10 14 -23 10 -38z m52 -102 c3 -5 2 -10 -4 -10 -5 0 -13 5 -16 10 -3 6 -2
10 4 10 5 0 13 -4 16 -10z m2695 -390 c0 -5 -2 -10 -4 -10 -3 0 -8 5 -11 10
-3 6 -1 10 4 10 6 0 11 -4 11 -10z m-2495 -310 c3 -5 1 -10 -4 -10 -6 0 -11 5
-11 10 0 6 2 10 4 10 3 0 8 -4 11 -10z m85 -120 c0 -5 -2 -10 -4 -10 -3 0 -8
5 -11 10 -3 6 -1 10 4 10 6 0 11 -4 11 -10z m1617 -86 c-3 -3 -12 -4 -19 -1
-8 3 -5 6 6 6 11 1 17 -2 13 -5z m-107 -144 c0 -5 -2 -10 -4 -10 -3 0 -8 5
-11 10 -3 6 -1 10 4 10 6 0 11 -4 11 -10z m-25 -10 c3 -5 -1 -10 -9 -10 -9 0
-16 5 -16 10 0 6 4 10 9 10 6 0 13 -4 16 -10z m1325 -69 c0 -6 -4 -13 -10 -16
-5 -3 -10 1 -10 9 0 9 5 16 10 16 6 0 10 -4 10 -9z m-68 -10 c-8 -5 -12 -17
-10 -26 3 -18 4 -18 20 -1 19 18 38 14 38 -9 0 -10 6 -12 18 -8 13 5 15 4 6
-8 -13 -18 -16 -59 -3 -59 5 0 9 -7 9 -15 0 -9 6 -18 14 -21 18 -7 9 -34 -10
-34 -8 0 -14 -5 -14 -11 0 -6 7 -9 15 -6 8 4 17 2 19 -2 3 -5 16 -6 29 -4 27
5 47 -24 23 -33 -16 -6 -14 -107 3 -128 8 -10 9 -16 1 -21 -17 -10 -11 -25 10
-25 25 0 26 -26 4 -52 -16 -16 -16 -18 0 -24 9 -3 16 -10 16 -16 0 -5 11 -19
24 -32 43 -39 51 -124 26 -259 -11 -55 -32 -123 -48 -155 -21 -42 -28 -69 -26
-102 2 -31 -2 -47 -13 -55 -11 -9 -13 -14 -5 -19 17 -10 15 -26 -4 -26 -12 0
-15 -7 -12 -30 3 -16 1 -30 -4 -30 -4 0 -8 -18 -8 -40 0 -43 -17 -90 -38 -103
-7 -5 -10 -17 -7 -27 3 -10 -1 -25 -9 -33 -9 -8 -18 -30 -20 -49 -5 -42 -16
-71 -30 -80 -8 -5 -7 -11 0 -18 9 -9 5 -18 -12 -35 -13 -13 -24 -36 -24 -50 0
-18 -5 -25 -20 -25 -13 0 -20 -7 -20 -18 0 -10 -5 -23 -12 -30 -9 -9 -9 -15 0
-24 17 -17 15 -31 -3 -24 -8 3 -15 1 -15 -5 0 -5 7 -12 15 -15 8 -4 15 -13 15
-22 0 -11 -3 -13 -11 -5 -7 7 -17 7 -35 -1 -26 -12 -32 -26 -11 -26 9 0 9 -2
0 -8 -10 -6 -9 -14 2 -34 22 -45 -1 -88 -31 -58 -8 8 -11 -1 -12 -26 -2 -45
-7 -52 -32 -36 -17 10 -20 10 -20 -3 0 -8 7 -15 15 -15 8 0 15 -5 15 -10 0 -6
-8 -10 -17 -8 -13 2 -17 -3 -15 -19 2 -12 -2 -24 -8 -28 -5 -3 -10 -14 -10
-23 -1 -20 -34 -62 -49 -62 -6 0 -15 -9 -21 -21 -9 -15 -8 -24 2 -37 11 -13
11 -15 -2 -10 -22 8 -42 -10 -70 -64 -14 -27 -31 -48 -37 -48 -7 0 -15 -11
-19 -24 -3 -13 -15 -27 -27 -30 -15 -4 -18 -8 -10 -14 17 -11 12 -52 -6 -49
-10 1 -20 -10 -26 -29 -5 -17 -16 -38 -23 -47 -9 -11 -11 -21 -4 -33 10 -18
-5 -73 -23 -86 -6 -5 -5 -15 3 -29 10 -15 11 -24 3 -32 -7 -7 -7 -14 0 -23 7
-9 7 -19 0 -32 -9 -17 -6 -22 22 -36 32 -16 32 -16 5 -16 -14 0 -28 5 -30 12
-2 6 -10 8 -16 4 -7 -4 -10 -15 -7 -25 3 -9 -2 -26 -10 -37 -17 -23 -19 -34
-5 -34 6 0 10 7 10 15 0 8 5 15 11 15 5 0 7 -4 4 -10 -3 -5 0 -10 8 -10 22 0
28 12 14 28 -10 13 -9 14 10 8 12 -4 24 -2 28 4 3 5 13 10 21 10 9 0 1 -13
-20 -32 -28 -26 -33 -35 -25 -50 6 -10 15 -16 20 -12 6 4 9 -2 8 -12 -2 -11 0
-24 4 -31 10 -16 -2 -63 -16 -63 -7 0 -7 -4 1 -12 17 -17 15 -41 -2 -35 -9 4
-12 0 -9 -13 3 -10 0 -21 -6 -24 -6 -4 -11 -18 -11 -30 0 -13 -7 -29 -15 -36
-9 -7 -14 -19 -11 -26 3 -7 -9 -31 -25 -54 -17 -23 -28 -44 -26 -47 7 -6 -26
-41 -35 -36 -3 2 -9 -10 -13 -27 -4 -16 -10 -30 -15 -30 -5 0 -12 -9 -15 -20
-3 -11 -11 -20 -16 -20 -16 0 -119 -127 -119 -146 0 -2 -16 -20 -35 -40 -19
-19 -35 -37 -35 -40 0 -10 -70 -74 -81 -74 -5 0 -9 -8 -7 -17 2 -11 -6 -22
-19 -28 -13 -5 -23 -13 -23 -17 0 -5 -10 -8 -21 -8 -18 0 -19 2 -9 15 11 13
10 14 -3 9 -16 -6 -47 16 -47 32 0 4 7 15 16 25 22 24 11 37 -26 31 -24 -3
-30 -1 -30 14 0 10 -11 28 -25 40 -14 12 -24 28 -23 35 2 8 -1 14 -7 13 -10
-1 -45 31 -45 41 0 10 -15 6 -18 -4 -2 -6 9 -22 24 -36 15 -14 24 -29 20 -33
-4 -4 -20 8 -35 27 -22 27 -31 32 -45 24 -10 -5 -18 -13 -18 -16 0 -22 -12
-47 -23 -47 -8 0 -10 9 -7 28 5 24 3 25 -11 14 -23 -19 -34 -8 -30 30 1 18 0
26 -3 18 -4 -8 -13 -23 -22 -32 -11 -13 -12 -18 -2 -18 7 0 10 -7 7 -15 -4 -8
-2 -17 3 -20 6 -4 10 -1 10 4 0 6 5 11 11 11 5 0 7 -4 4 -10 -3 -5 -2 -10 2
-10 5 0 9 -16 10 -35 1 -37 -7 -44 -27 -20 -10 12 -15 12 -35 -1 -15 -10 -25
-12 -30 -5 -3 6 1 11 9 11 9 0 16 5 16 10 0 6 -4 10 -10 10 -5 0 -10 7 -10 15
0 8 -5 15 -11 15 -6 0 -9 -7 -5 -15 3 -8 -1 -18 -8 -22 -17 -11 -30 -63 -15
-63 7 0 9 -9 5 -25 -6 -23 -4 -25 17 -20 16 4 29 -1 46 -19 25 -27 22 -46 -9
-43 -18 1 -24 12 -23 45 1 14 -7 15 -25 3 -11 -7 -11 -9 2 -14 16 -6 21 -42
10 -71 -4 -11 -13 -14 -30 -10 -18 5 -24 2 -24 -10 0 -9 6 -16 14 -16 24 0 29
-20 10 -35 -11 -7 -20 -18 -20 -24 -1 -6 -2 -16 -3 -23 -1 -9 -4 -9 -13 0 -8
8 -17 8 -31 0 -25 -13 -40 8 -25 35 7 14 7 22 -3 28 -8 4 -16 4 -19 0 -3 -4
-15 -13 -28 -20 -19 -10 -28 -10 -47 3 -14 9 -31 16 -39 16 -20 0 -31 20 -16
30 7 4 -3 10 -26 15 -56 10 -76 23 -69 44 4 15 1 17 -18 14 -14 -3 -29 2 -36
11 -8 9 -20 16 -27 16 -8 0 -19 9 -26 20 -7 11 -18 20 -25 20 -7 0 -17 9 -23
20 -6 10 -16 17 -24 14 -7 -3 -20 2 -29 10 -9 9 -23 16 -32 16 -11 0 -15 6
-11 18 5 15 0 18 -31 20 -21 2 -41 8 -44 14 -4 6 -23 11 -43 10 -26 -1 -36 3
-36 13 0 8 -7 15 -16 15 -8 0 -12 4 -9 10 3 6 -2 10 -13 10 -10 0 -31 11 -46
25 -15 14 -34 25 -42 25 -7 0 -14 7 -14 15 0 9 -6 15 -14 13 -8 -2 -15 1 -14
6 0 5 -4 12 -9 15 -8 6 -13 14 -51 73 -10 16 -23 26 -32 23 -16 -5 -76 42 -66
52 8 9 -24 43 -41 43 -7 0 -13 6 -13 14 0 8 -6 27 -14 43 -8 15 -21 44 -30 63
-8 19 -23 56 -34 81 -14 32 -19 61 -16 98 3 39 1 53 -11 57 -8 4 -15 13 -15
21 0 18 -25 44 -34 36 -3 -4 -6 -2 -6 3 0 6 5 15 11 21 7 7 6 15 -5 26 -9 9
-16 21 -16 27 0 7 -11 25 -25 42 -26 30 -33 58 -15 58 6 0 6 7 -2 19 -6 10
-18 17 -25 14 -8 -3 -13 3 -13 16 0 15 -5 21 -17 19 -11 -2 -18 3 -18 12 0 8
-8 21 -18 29 -10 7 -16 19 -13 27 3 8 1 14 -3 14 -15 0 -48 64 -46 89 1 15 -6
26 -19 33 -25 11 -56 69 -56 103 0 14 -16 46 -35 71 -23 30 -34 53 -30 64 3
10 0 22 -6 26 -8 4 -9 3 -5 -4 4 -7 3 -12 -3 -12 -13 0 -31 33 -31 58 0 11 -6
25 -14 32 -8 6 -12 18 -9 26 3 8 0 14 -6 14 -6 0 -11 8 -11 18 0 9 -7 30 -15
46 -8 15 -21 53 -29 83 -8 30 -22 63 -30 72 -9 10 -16 23 -16 30 0 6 -7 14
-15 17 -8 4 -15 14 -15 24 0 10 -6 23 -14 30 -8 6 -12 18 -9 26 3 8 -1 14 -9
14 -11 0 -14 11 -13 38 1 35 -26 105 -46 118 -5 3 -9 18 -9 33 0 16 -7 34 -15
41 -9 7 -13 20 -10 28 3 7 -4 27 -16 43 -11 16 -17 33 -14 39 11 18 25 11 25
-12 1 -22 1 -22 12 -4 8 15 7 22 -4 30 -19 14 -41 56 -29 56 10 0 24 30 16 38
-3 3 -13 -3 -24 -12 -25 -23 -33 -8 -20 38 9 31 8 41 -6 56 -11 12 -13 20 -6
25 6 3 11 -1 11 -9 0 -9 7 -16 15 -16 8 0 12 6 9 14 -7 19 16 32 27 15 5 -8 9
-9 10 -4 4 34 3 51 -3 55 -4 3 1 22 12 42 17 32 17 38 4 49 -13 10 -13 15 0
34 17 26 10 40 -12 22 -13 -10 -14 -8 -7 13 4 14 15 30 24 37 11 9 12 15 5 20
-23 17 -25 46 -3 69 20 22 20 24 5 40 -13 12 -14 19 -6 24 7 4 10 24 8 46 -2
32 0 39 15 38 14 -2 17 5 14 30 -2 17 -7 37 -11 44 -11 18 4 34 25 29 11 -3
19 -1 19 4 0 5 -12 11 -27 15 -50 10 -60 17 -35 22 13 2 26 10 29 18 7 18 23
18 23 0 0 -7 7 -19 15 -26 10 -9 15 -9 15 -1 0 6 -5 11 -11 11 -5 0 -7 4 -4
10 8 14 -26 70 -43 70 -7 0 -10 5 -6 11 3 6 15 9 25 6 15 -4 19 0 19 19 0 15
6 24 15 24 19 0 19 -24 0 -40 -20 -17 -19 -27 5 -35 13 -4 20 -15 20 -31 0
-14 4 -23 9 -20 5 3 12 -4 15 -17 l7 -22 12 25 c6 14 12 26 13 28 0 1 13 -2
28 -7 19 -8 26 -18 26 -36 0 -14 7 -28 16 -32 8 -3 13 -12 10 -19 -3 -8 1 -14
9 -14 8 0 15 -7 15 -15 0 -19 7 -19 27 0 9 9 23 13 35 9 10 -3 36 -7 57 -9 22
-1 43 -5 49 -9 6 -3 13 -2 16 3 9 13 46 1 46 -15 0 -7 5 -25 12 -39 9 -19 19
-25 45 -25 26 0 33 -4 33 -19 0 -23 21 -33 75 -38 22 -2 53 -4 68 -6 15 -1 32
-9 37 -17 5 -8 10 -11 10 -7 0 11 43 -13 53 -29 4 -8 16 -14 25 -14 9 -1 32
-13 50 -29 24 -20 40 -27 59 -23 18 3 30 -1 39 -13 7 -9 18 -14 24 -10 6 4 20
-1 31 -11 16 -15 19 -15 14 -2 -4 9 -2 19 3 22 6 3 12 -1 16 -9 3 -8 13 -15
22 -15 9 0 28 -8 42 -19 39 -27 73 -36 82 -20 7 10 14 9 34 -4 17 -11 27 -13
32 -6 3 6 19 9 35 7 25 -4 27 -2 16 11 -27 35 -43 41 -99 39 -47 -3 -60 0 -72
17 -9 11 -15 25 -16 30 0 15 49 35 68 28 14 -5 15 -3 5 7 -10 11 -9 16 5 26
24 18 30 17 37 -7 5 -16 12 -19 35 -14 16 3 37 2 47 -4 47 -25 94 -35 87 -17
-2 6 6 16 18 21 16 7 22 17 20 33 -2 12 2 22 7 22 6 0 11 6 12 13 0 6 22 30
48 52 60 50 76 74 62 88 -7 7 -23 7 -53 -2 -24 -8 -49 -15 -55 -17 -7 -2 -13
-12 -13 -22 0 -28 -67 -72 -94 -62 -11 4 -31 4 -44 -1 -22 -9 -62 6 -62 23 0
5 -12 8 -26 8 -20 0 -25 4 -20 16 3 9 6 22 6 30 0 8 6 11 15 8 10 -4 15 0 16
12 1 34 52 64 116 68 87 6 136 17 156 34 20 18 23 33 5 30 -7 -2 -14 7 -16 20
-2 12 1 22 6 22 6 0 17 3 26 6 11 4 15 -3 18 -32 2 -21 9 -39 17 -42 10 -3 12
0 8 11 -8 20 4 28 43 29 17 1 30 5 30 10 0 4 9 8 20 8 25 0 25 -8 1 -39 -10
-14 -17 -31 -14 -38 3 -8 -3 -23 -12 -33 -11 -12 -13 -20 -7 -20 7 0 12 5 12
10 0 6 8 10 19 10 10 0 28 13 40 29 27 35 102 72 109 53 2 -6 15 -12 29 -12
20 0 23 -3 18 -22 -6 -18 -4 -20 11 -13 11 4 27 10 37 12 9 3 20 16 23 29 10
38 36 31 32 -8 -2 -26 -8 -33 -26 -34 -23 -1 -51 -29 -52 -51 -1 -42 71 -143
103 -143 13 0 17 -5 13 -15 -3 -8 -4 -15 -2 -15 3 0 12 -3 21 -6 13 -6 16 -1
14 22 -5 61 0 76 21 69 12 -4 20 -2 20 5 0 8 9 10 25 6 21 -5 25 -3 25 14 0
18 3 19 20 10 11 -6 18 -15 14 -21 -10 -17 18 -41 42 -35 33 9 56 -3 49 -24
-4 -12 2 -24 15 -33 11 -7 17 -17 12 -22 -4 -5 -1 -5 6 -1 19 11 52 -3 45 -20
-4 -11 -9 -12 -19 -3 -9 8 -14 8 -14 1 0 -21 21 -24 46 -7 25 16 27 16 46 -5
12 -13 27 -19 37 -16 12 5 11 2 -3 -9 -14 -11 -22 -12 -27 -4 -9 14 -29 3 -29
-17 0 -8 -7 -14 -15 -14 -8 0 -15 5 -15 12 0 9 -3 9 -11 1 -10 -10 -59 -9
-116 3 -12 2 -26 16 -31 31 -9 25 -10 26 -11 6 -1 -26 -19 -31 -27 -8 -4 8
-17 15 -30 15 -18 0 -22 -4 -17 -17 5 -12 3 -14 -7 -8 -8 5 -11 3 -8 -6 3 -8
16 -13 31 -12 21 2 27 -2 27 -17 0 -11 4 -20 9 -20 5 0 12 -9 16 -19 5 -17 15
-19 70 -18 49 2 65 -1 65 -12 0 -11 3 -11 15 -1 8 7 15 9 15 5 0 -4 7 -2 15 5
8 6 20 8 26 4 9 -5 7 -11 -6 -21 -17 -12 -16 -13 12 -13 27 0 30 3 25 25 -3
18 0 25 11 25 22 0 31 -18 17 -35 -9 -11 -9 -15 -1 -15 6 0 11 -8 11 -18 0
-11 9 -27 20 -37 17 -16 20 -16 26 -2 8 21 34 30 50 16 11 -9 14 -8 14 1 0 7
8 10 20 7 23 -6 39 12 20 23 -9 6 -9 9 0 15 6 4 17 2 23 -4 7 -7 14 -3 24 16
11 21 11 28 1 34 -8 5 -3 10 15 14 14 4 29 16 32 26 6 18 55 78 58 71 4 -8 54
19 82 43 20 17 26 28 18 31 -18 8 -16 39 4 55 14 12 16 12 8 0 -6 -11 -4 -13
8 -8 9 3 19 2 23 -4 9 -14 34 9 34 32 0 21 26 26 33 7 2 -7 8 -10 12 -5 5 4 0
14 -11 21 -16 12 -17 17 -6 28 11 11 14 10 22 -2 7 -11 10 -1 10 33 0 34 -4
49 -15 54 -13 5 -13 8 5 20 18 13 23 12 49 -6 35 -25 60 -29 41 -6 -8 10 -9
15 -1 15 6 0 13 11 17 24 5 22 40 46 68 46 7 0 13 13 13 33 1 17 3 47 6 65 3
26 1 32 -11 27 -9 -3 -12 0 -9 9 4 10 1 13 -9 9 -7 -3 -14 -9 -14 -14 0 -15
-27 -10 -34 6 -8 21 3 45 21 45 9 0 13 -6 10 -14 -4 -10 -1 -13 7 -10 7 3 12
15 12 27 -1 16 6 23 22 25 16 2 22 8 18 18 -4 10 2 14 19 14 25 0 37 20 13 20
-8 1 -6 6 5 14 9 7 17 23 17 35 0 16 6 21 26 21 14 0 23 4 19 10 -3 6 0 10 8
10 10 0 13 7 10 20 -4 15 -1 18 15 15 15 -2 23 3 28 18 7 23 32 46 49 47 6 0
4 -4 -3 -9z m-66 -37 c-5 -14 -9 -15 -19 -5 -9 9 -9 14 3 21 18 11 24 6 16
-16z m-2968 -136 c19 -19 14 -28 -12 -28 -27 0 -41 14 -31 30 8 14 28 13 43
-2z m3172 2 c0 -5 -4 -10 -10 -10 -5 0 -10 5 -10 10 0 6 5 10 10 10 6 0 10 -4
10 -10z m-455 -131 c-10 -15 -25 -10 -19 6 4 8 10 12 15 9 5 -3 7 -10 4 -15z
m-3075 -66 c0 -16 -36 -17 -46 -2 -4 7 0 9 14 5 17 -6 20 -3 15 16 -4 18 -3
20 6 8 6 -8 11 -21 11 -27z m40 7 c0 -5 -4 -10 -10 -10 -5 0 -10 5 -10 10 0 6
5 10 10 10 6 0 10 -4 10 -10z m-40 -50 c0 -5 -5 -10 -11 -10 -5 0 -7 5 -4 10
3 6 8 10 11 10 2 0 4 -4 4 -10z m573 -13 c35 -29 34 -37 -3 -37 -36 0 -74 32
-57 49 16 16 31 14 60 -12z m514 6 c4 -10 11 -22 17 -26 7 -5 4 -6 -7 -3 -10
3 -27 6 -37 6 -13 0 -17 5 -13 20 7 25 31 26 40 3z m-997 -1 c0 -5 9 -18 20
-30 17 -17 19 -26 10 -42 -10 -19 -11 -19 -28 -2 -24 24 -33 48 -26 67 6 16
24 21 24 7z m-115 -22 c-3 -5 -10 -10 -16 -10 -5 0 -9 5 -9 10 0 6 7 10 16 10
8 0 12 -4 9 -10z m469 -5 c22 -16 12 -38 -14 -30 -10 3 -21 2 -24 -3 -3 -5
-30 -8 -61 -7 -30 1 -55 -3 -55 -8 0 -9 -49 -1 -60 10 -3 2 3 9 13 14 9 6 15
14 12 19 -3 5 15 7 41 4 29 -3 43 -1 39 6 -10 16 87 12 109 -5z m-459 -35 c3
-5 1 -10 -4 -10 -6 0 -11 5 -11 10 0 6 2 10 4 10 3 0 8 -4 11 -10z m1005 -4
c0 -7 -7 -19 -15 -26 -12 -10 -16 -9 -21 5 -4 10 -1 21 7 26 20 12 29 11 29
-5z m1296 -18 c-2 -21 -11 -35 -25 -42 -28 -12 -27 -36 2 -37 l22 0 -22 -16
c-26 -17 -30 -42 -10 -62 10 -11 7 -12 -13 -6 -35 10 -47 23 -27 31 27 10 20
23 -10 21 -24 -2 -28 1 -25 23 1 14 9 30 17 36 8 6 15 19 15 28 0 9 6 16 13
16 7 0 20 9 30 20 25 29 37 25 33 -12z m-2086 8 c0 -3 -4 -8 -10 -11 -5 -3
-10 -1 -10 4 0 6 5 11 10 11 6 0 10 -2 10 -4z m2759 -57 c-15 -9 -32 -2 -24
11 3 5 13 6 21 3 12 -4 13 -8 3 -14z m-2395 -85 c25 -10 19 -22 -9 -16 -14 2
-22 8 -19 13 6 11 8 11 28 3z m1825 -87 c17 -21 -7 -40 -26 -21 -8 7 -11 18
-8 24 8 14 20 13 34 -3z m-1169 -62 c0 -8 -7 -15 -15 -15 -26 0 -18 20 13 29
1 1 2 -6 2 -14z m-1280 -39 c0 -3 -4 -8 -10 -11 -5 -3 -10 -1 -10 4 0 6 5 11
10 11 6 0 10 -2 10 -4z m1090 -56 c0 -5 -4 -10 -10 -10 -5 0 -10 5 -10 10 0 6
5 10 10 10 6 0 10 -4 10 -10z m-1096 -176 c3 -8 2 -12 -4 -9 -6 3 -10 10 -10
16 0 14 7 11 14 -7z m3870 -485 c0 -13 -4 -46 -8 -74 -5 -27 -10 -224 -12
-437 -2 -258 -7 -394 -14 -408 -7 -14 -11 -107 -12 -268 0 -181 -4 -257 -14
-285 -8 -23 -14 -80 -14 -135 0 -54 0 -112 0 -129 -1 -52 -70 -155 -98 -145
-7 2 -12 -5 -12 -15 0 -23 -46 -68 -79 -78 -14 -4 -45 -26 -70 -49 -99 -90
-105 -94 -186 -101 -50 -5 -83 -14 -99 -26 -13 -11 -37 -19 -53 -19 -15 0 -66
-9 -112 -20 -62 -14 -90 -25 -108 -44 -27 -29 -55 -33 -73 -11 -11 13 -9 20 9
39 13 14 35 27 49 31 14 3 31 14 37 22 9 12 35 18 92 22 44 3 87 12 96 20 10
7 27 11 40 7 14 -3 35 2 55 14 18 11 53 25 78 30 52 12 94 36 94 55 0 8 13 16
30 20 16 4 32 10 35 15 7 12 65 40 82 40 7 0 16 7 19 15 4 8 12 15 19 15 12 0
25 21 25 42 0 18 -53 -2 -84 -32 -17 -17 -53 -36 -85 -45 -68 -19 -99 -34
-126 -60 -17 -17 -20 -18 -23 -4 -2 9 4 36 13 60 9 24 19 54 22 67 3 12 12 22
19 22 8 0 14 4 14 9 0 4 10 6 23 4 13 -3 40 5 61 16 20 12 43 21 51 21 23 0
28 20 9 35 -11 8 -29 15 -42 15 -13 0 -32 5 -43 11 -17 9 -18 13 -8 25 10 13
10 17 0 24 -8 4 -11 13 -7 19 4 6 -17 22 -53 40 -34 16 -63 25 -67 20 -10 -16
-20 -10 -20 14 0 12 7 27 15 33 13 10 12 13 -7 25 -15 10 -22 24 -22 46 0 17
-5 44 -11 60 -6 15 -10 64 -10 107 0 44 -4 85 -10 92 -8 10 -6 22 5 45 9 18
16 38 16 46 0 7 18 32 39 56 33 35 40 52 49 107 5 36 8 69 5 73 -7 11 18 97
27 97 5 0 18 30 31 68 12 37 29 74 38 83 32 32 51 59 51 72 0 7 9 30 21 51 11
21 18 41 15 44 -3 3 -1 11 5 19 6 7 9 22 6 33 -3 12 -1 17 5 14 5 -3 12 3 15
15 3 12 12 21 19 21 8 0 14 7 14 15 0 21 57 82 83 89 23 5 51 48 40 60 -12 12
-6 87 12 131 9 25 15 49 12 52 -3 2 7 18 21 35 15 17 26 34 25 39 -2 4 7 4 20
0 15 -6 22 -16 21 -32z m-4060 -274 c-4 -8 -12 -15 -20 -15 -17 0 -18 17 -1
23 22 9 27 7 21 -8z m13 -37 c-2 -7 -1 -23 4 -35 7 -20 -4 -33 -30 -33 -13 0
-11 64 2 72 18 12 29 9 24 -4z m-4 -111 c-1 -22 6 -33 37 -53 35 -23 90 -92
90 -112 0 -4 9 -15 20 -25 11 -9 20 -25 20 -34 0 -10 9 -24 20 -31 22 -13 28
-37 8 -27 -7 3 -3 -2 10 -11 12 -9 22 -25 22 -37 0 -11 9 -35 21 -53 18 -30
19 -34 4 -34 -9 0 -19 9 -22 20 -3 10 -15 22 -27 26 -11 4 -35 21 -53 38 -17
17 -49 48 -71 69 -52 51 -66 49 -60 -8 3 -25 3 -45 -1 -45 -9 0 -7 -48 2 -57
4 -3 3 -11 -2 -17 -12 -16 5 -56 24 -56 9 0 47 -18 84 -40 37 -22 73 -40 79
-40 7 0 12 -4 12 -10 0 -5 5 -10 11 -10 11 0 64 -53 86 -87 19 -27 63 -122 63
-134 0 -11 26 -62 45 -88 5 -8 15 -41 22 -74 12 -57 11 -61 -9 -79 -12 -10
-25 -18 -29 -18 -11 0 -69 72 -69 86 0 7 -13 24 -30 37 -16 14 -30 33 -30 42
0 8 -11 20 -24 25 -13 4 -26 20 -30 34 -3 14 -12 26 -19 26 -33 0 -104 88 -98
123 1 10 -7 21 -22 26 -14 6 -28 15 -32 20 -13 22 -24 10 -18 -19 4 -23 2 -30
-10 -30 -9 0 -18 4 -22 10 -7 11 -38 471 -37 560 0 120 1 122 20 118 12 -3 16
-12 15 -31z m3520 -12 c8 -18 -11 -31 -25 -17 -11 11 -3 32 12 32 4 0 10 -7
13 -15z m72 -75 c-11 -5 -29 -9 -40 -9 l-20 0 20 9 c11 5 29 9 40 9 l20 0 -20
-9z m-84 -53 c-10 -9 -11 -8 -5 6 3 10 9 15 12 12 3 -3 0 -11 -7 -18z m-61 -2
c0 -8 -7 -15 -15 -15 -16 0 -20 12 -8 23 11 12 23 8 23 -8z m10 -51 c0 -8 -5
-12 -10 -9 -6 4 -8 11 -5 16 9 14 15 11 15 -7z m-50 -33 c0 -5 -9 -7 -20 -4
-11 3 -20 7 -20 9 0 2 9 4 20 4 11 0 20 -4 20 -9z m-30 -101 c0 -5 -4 -10 -9
-10 -6 0 -13 5 -16 10 -3 6 1 10 9 10 9 0 16 -4 16 -10z m-60 -25 c0 -9 -6
-12 -15 -9 -8 4 -15 10 -15 15 0 5 7 9 15 9 8 0 15 -7 15 -15z m-3042 -104 c3
-8 -1 -12 -9 -9 -7 2 -15 10 -17 17 -3 8 1 12 9 9 7 -2 15 -10 17 -17z m-240
-256 c-3 -14 -1 -25 3 -25 5 0 9 -9 9 -20 0 -12 10 -24 24 -30 24 -9 66 -59
66 -79 0 -6 -9 -11 -19 -11 -10 0 -29 -9 -42 -20 -17 -14 -19 -18 -6 -14 14 5
17 0 17 -27 0 -18 7 -41 17 -51 17 -19 39 -25 28 -8 -3 6 1 10 11 10 9 0 43
-28 76 -62 44 -47 58 -69 55 -85 -2 -13 0 -23 4 -23 5 0 15 -13 23 -29 14 -26
14 -30 1 -35 -17 -6 -36 1 -85 31 -19 12 -38 22 -43 22 -4 0 -20 7 -37 16 -37
19 -37 19 -43 -5 -3 -14 5 -27 29 -46 36 -29 47 -74 19 -74 -8 0 -15 -3 -15
-8 0 -11 79 -92 90 -92 5 0 10 -7 10 -15 0 -8 8 -15 19 -15 10 0 24 -7 31 -15
7 -8 22 -15 33 -15 11 0 38 -15 61 -34 23 -18 55 -40 72 -49 31 -16 32 -16 27
4 -8 29 17 42 40 22 17 -16 18 -15 24 5 6 26 30 29 37 5 4 -16 1 -88 -4 -88
-1 0 -3 -9 -5 -19 -5 -26 -24 -36 -55 -29 -17 3 -39 -3 -60 -16 -28 -16 -37
-18 -54 -8 -12 7 -25 12 -31 13 -16 1 -60 16 -65 23 -3 4 -29 14 -59 23 -62
20 -89 11 -71 -22 20 -37 -12 -33 -51 6 -29 29 -41 51 -48 87 -5 31 -5 50 2
54 12 8 0 293 -14 310 -8 9 -23 195 -21 266 1 10 -3 30 -8 43 -6 15 -6 34 0
49 6 15 6 26 0 30 -14 9 -12 75 1 75 7 0 9 -10 7 -25z m3258 -82 c-7 -7 -26 7
-26 19 0 6 6 6 15 -2 9 -7 13 -15 11 -17z m124 -3 c0 -5 -4 -10 -10 -10 -5 0
-10 5 -10 10 0 6 5 10 10 10 6 0 10 -4 10 -10z m-160 -65 c-7 -8 -18 -15 -24
-15 -6 0 -2 7 8 15 25 19 32 19 16 0z m162 -53 c-3 -9 -12 -23 -20 -31 -7 -7
-11 -19 -8 -26 4 -12 -43 -29 -53 -19 -2 2 4 23 13 47 14 38 21 44 46 45 23 0
28 -3 22 -16z m-228 -24 c-7 -25 -27 -42 -32 -28 -5 13 17 50 29 50 6 0 7 -9
3 -22z m186 -108 c0 -4 -6 -10 -14 -13 -12 -5 -14 2 -7 31 2 7 21 -10 21 -18z
m56 -286 c-5 -14 -9 -15 -19 -5 -9 9 -9 14 3 21 18 11 24 6 16 -16z m-80 -185
c3 -6 -1 -18 -10 -27 -12 -13 -18 -13 -28 -4 -9 9 -9 12 0 12 7 0 12 7 12 15
0 17 16 20 26 4z m-3143 -159 c15 -16 27 -34 27 -40 0 -5 6 -10 14 -10 7 0 16
-8 19 -19 2 -10 18 -24 36 -32 17 -8 31 -17 31 -21 0 -5 5 -8 11 -8 6 0 30
-15 52 -32 35 -28 50 -33 93 -33 29 0 51 -2 48 -4 -2 -2 13 -12 32 -22 37 -18
96 -18 119 1 9 8 13 4 13 -15 0 -15 -10 -33 -24 -44 -13 -10 -24 -21 -24 -24
0 -3 22 -4 49 -2 28 2 61 0 75 -3 l26 -7 -20 -33 c-15 -24 -27 -32 -49 -32
-46 0 -132 20 -178 41 -24 10 -46 19 -49 19 -18 0 -200 146 -210 168 -7 15
-20 34 -30 43 -38 32 -104 115 -104 131 0 16 17 7 43 -22z m2269 -102 c-7 -7
-12 -8 -12 -2 0 14 12 26 19 19 2 -3 -1 -11 -7 -17z m573 -1 c17 -17 7 -33
-29 -46 -50 -20 -66 17 -18 43 34 19 31 19 47 3z m-745 -13 c0 -17 -22 -14
-28 4 -2 7 3 12 12 12 9 0 16 -7 16 -16z m-100 -3 c0 -6 -4 -13 -10 -16 -5 -3
-10 1 -10 9 0 9 5 16 10 16 6 0 10 -4 10 -9z m50 -31 c0 -5 -2 -10 -4 -10 -3
0 -8 5 -11 10 -3 6 -1 10 4 10 6 0 11 -4 11 -10z m254 -15 c-4 -8 -12 -15 -20
-15 -8 0 -14 7 -14 15 0 8 9 15 20 15 13 0 18 -5 14 -15z m-236 -24 c3 -8 -1
-12 -9 -9 -7 2 -15 10 -17 17 -3 8 1 12 9 9 7 -2 15 -10 17 -17z m44 -43 c-15
-15 -26 -4 -18 18 5 13 9 15 18 6 9 -9 9 -15 0 -24z m158 12 c0 -5 -11 -10
-25 -10 -14 0 -25 5 -25 10 0 6 11 10 25 10 14 0 25 -4 25 -10z m-65 -10 c3
-5 1 -10 -4 -10 -6 0 -11 5 -11 10 0 6 2 10 4 10 3 0 8 -4 11 -10z m-126 -21
c35 -12 40 -26 14 -36 -10 -4 -22 -11 -26 -17 -6 -7 -7 -4 -3 6 3 11 -2 22
-14 28 -20 11 -27 30 -11 30 4 0 22 -5 40 -11z m226 1 c3 -5 -1 -10 -9 -10 -9
0 -16 5 -16 10 0 6 4 10 9 10 6 0 13 -4 16 -10z m-281 -15 c11 -8 17 -17 14
-21 -7 -6 -48 17 -48 28 0 12 13 9 34 -7z m-4 -35 c0 -5 -7 -10 -16 -10 -8 0
-12 5 -9 10 3 6 10 10 16 10 5 0 9 -4 9 -10z m-1308 -7 c10 -48 4 -63 -29 -74
-19 -6 -41 -8 -51 -4 -14 5 -11 10 16 31 18 14 32 32 32 40 0 14 29 20 32 7z
m1389 -26 c0 -19 -42 -78 -53 -75 -21 7 -20 25 2 31 11 3 20 12 20 21 0 9 5
16 11 16 5 0 7 5 3 11 -4 7 -2 10 5 8 7 -3 12 -8 12 -12z m-261 -1 c0 -3 -4
-8 -10 -11 -5 -3 -10 -1 -10 4 0 6 5 11 10 11 6 0 10 -2 10 -4z m356 -33 c-10
-10 -19 5 -10 18 6 11 8 11 12 0 2 -7 1 -15 -2 -18z m-58 -3 c7 -11 9 -20 4
-20 -10 0 -32 22 -32 32 0 15 15 8 28 -12z m137 0 c3 -5 1 -10 -4 -10 -6 0
-11 5 -11 10 0 6 2 10 4 10 3 0 8 -4 11 -10z m-170 -10 c3 -5 1 -10 -4 -10 -6
0 -11 5 -11 10 0 6 2 10 4 10 3 0 8 -4 11 -10z m85 -105 c-7 -9 -15 -13 -17
-11 -6 6 20 36 26 30 2 -2 -2 -10 -9 -19z m-57 -53 c-13 -2 -23 -8 -23 -14 0
-5 7 -8 15 -4 10 3 17 -3 21 -19 9 -37 1 -49 -34 -51 -32 -2 -44 10 -19 19 9
3 9 7 -1 19 -10 12 -10 20 0 40 7 13 18 26 23 28 6 3 9 16 8 30 -3 22 0 20 15
-10 17 -35 17 -35 -5 -38z"/>
<path d="M6305 13840 c3 -5 11 -10 16 -10 6 0 7 5 4 10 -3 6 -11 10 -16 10 -6
0 -7 -4 -4 -10z"/>
<path d="M6820 13800 c0 -5 5 -10 10 -10 6 0 10 5 10 10 0 6 -4 10 -10 10 -5
0 -10 -4 -10 -10z"/>
<path d="M5810 13790 c0 -5 5 -10 10 -10 6 0 10 5 10 10 0 6 -4 10 -10 10 -5
0 -10 -4 -10 -10z"/>
<path d="M4910 13645 c-24 -14 -24 -14 -3 -15 12 0 25 5 28 11 11 17 2 18 -25
4z"/>
<path d="M7770 13630 c0 -5 5 -10 10 -10 6 0 10 5 10 10 0 6 -4 10 -10 10 -5
0 -10 -4 -10 -10z"/>
<path d="M4870 13599 c0 -5 5 -7 10 -4 6 3 10 8 10 11 0 2 -4 4 -10 4 -5 0
-10 -5 -10 -11z"/>
<path d="M7750 13580 c0 -5 5 -10 10 -10 6 0 10 5 10 10 0 6 -4 10 -10 10 -5
0 -10 -4 -10 -10z"/>
<path d="M4867 13547 c-3 -9 1 -18 9 -21 16 -6 18 2 5 22 -7 11 -9 11 -14 -1z"/>
<path d="M4800 13529 c0 -7 -7 -17 -17 -24 -18 -13 -10 -35 13 -35 11 0 13 6
9 20 -4 11 -2 20 4 20 6 0 11 7 11 15 0 8 -4 15 -10 15 -5 0 -10 -5 -10 -11z"/>
<path d="M7790 13520 c0 -19 3 -21 12 -12 9 9 9 15 0 24 -9 9 -12 7 -12 -12z"/>
<path d="M4730 13506 c0 -9 5 -16 10 -16 6 0 10 4 10 9 0 6 -4 13 -10 16 -5 3
-10 -1 -10 -9z"/>
<path d="M4595 13430 c3 -5 10 -10 16 -10 5 0 9 5 9 10 0 6 -7 10 -16 10 -8 0
-12 -4 -9 -10z"/>
<path d="M8065 13410 c3 -5 10 -10 16 -10 5 0 9 5 9 10 0 6 -7 10 -16 10 -8 0
-12 -4 -9 -10z"/>
<path d="M4660 13380 c0 -5 5 -10 11 -10 5 0 7 5 4 10 -3 6 -8 10 -11 10 -2 0
-4 -4 -4 -10z"/>
<path d="M4525 13270 c-3 -5 -1 -10 4 -10 6 0 11 5 11 10 0 6 -2 10 -4 10 -3
0 -8 -4 -11 -10z"/>
<path d="M8270 13190 c0 -5 7 -10 16 -10 8 0 12 5 9 10 -3 6 -10 10 -16 10 -5
0 -9 -4 -9 -10z"/>
<path d="M4400 13180 c0 -5 5 -10 11 -10 5 0 7 5 4 10 -3 6 -8 10 -11 10 -2 0
-4 -4 -4 -10z"/>
<path d="M8486 12749 c-22 -32 -20 -48 4 -42 12 3 18 8 15 11 -2 3 0 11 7 19
8 10 8 17 1 24 -7 7 -16 4 -27 -12z"/>
<path d="M4225 12740 c3 -5 8 -10 11 -10 2 0 4 5 4 10 0 6 -5 10 -11 10 -5 0
-7 -4 -4 -10z"/>
<path d="M8542 12638 c5 -15 28 -23 28 -10 0 5 -7 13 -16 16 -10 4 -14 1 -12
-6z"/>
<path d="M4197 12614 c-4 -4 -7 -14 -7 -23 0 -11 3 -12 11 -4 6 6 10 16 7 23
-2 6 -7 8 -11 4z"/>
<path d="M8560 12600 c0 -5 5 -10 11 -10 5 0 7 5 4 10 -3 6 -8 10 -11 10 -2 0
-4 -4 -4 -10z"/>
<path d="M8590 12531 c0 -5 5 -13 10 -16 6 -3 10 -2 10 4 0 5 -4 13 -10 16 -5
3 -10 2 -10 -4z"/>
<path d="M8311 12184 c0 -11 3 -14 6 -6 3 7 2 16 -1 19 -3 4 -6 -2 -5 -13z"/>
<path d="M8315 12154 c-8 -6 -15 -16 -15 -21 0 -6 -11 -8 -25 -5 -21 4 -25 0
-25 -18 0 -23 0 -23 -26 4 -24 23 -33 26 -90 23 -35 -2 -67 -7 -71 -10 -3 -4
-1 -7 5 -7 6 0 10 -8 9 -19 0 -10 -6 -18 -12 -17 -20 1 -85 -38 -85 -52 0 -9
-7 -13 -18 -10 -10 3 -24 -2 -31 -10 -10 -10 -28 -13 -64 -9 -38 3 -59 0 -84
-14 -18 -10 -33 -15 -33 -10 0 5 -67 7 -149 5 -151 -3 -228 -19 -304 -62 -34
-20 -45 -52 -23 -64 18 -10 22 -28 5 -28 -11 0 -69 -54 -69 -65 0 -4 10 -15
22 -25 21 -17 22 -19 7 -37 -9 -10 -19 -33 -23 -52 -6 -31 -4 -33 18 -29 21 4
25 1 28 -21 3 -25 5 -26 66 -24 42 1 70 7 81 17 10 9 23 16 29 16 7 0 12 5 12
10 0 14 26 12 38 -3 13 -15 62 -21 62 -8 0 5 -6 11 -12 14 -8 2 -9 8 -4 13 5
5 11 4 13 -3 7 -19 57 -16 95 5 29 16 113 37 233 59 22 4 68 6 102 4 33 -1 64
2 67 7 9 14 134 5 158 -12 15 -11 26 -12 40 -5 24 13 49 5 42 -14 -3 -8 7 -19
23 -27 15 -8 36 -21 46 -29 16 -13 19 -13 28 -1 8 11 12 12 16 3 2 -7 11 -13
19 -13 7 0 19 -8 25 -18 10 -16 19 -18 52 -11 46 8 55 7 83 -8 12 -7 26 -8 35
-3 7 5 23 7 33 4 15 -5 18 -3 13 10 -5 11 0 19 14 24 19 7 19 9 5 21 -20 17
-21 41 -1 41 8 0 15 7 15 15 0 20 -19 19 -42 -2 -22 -20 -24 -10 -2 12 9 9 14
19 10 22 -3 4 -12 1 -18 -5 -15 -15 -28 -16 -28 -2 0 6 7 10 15 10 8 0 15 7
15 15 0 23 27 18 33 -7 10 -36 18 -15 22 57 5 81 1 91 -27 65 -12 -11 -28 -20
-35 -20 -7 0 -13 -4 -13 -10 0 -5 6 -10 14 -10 8 0 18 5 21 10 3 6 11 10 17
10 6 0 4 -8 -5 -18 -10 -10 -14 -22 -10 -27 5 -4 -2 -1 -14 6 -18 11 -27 11
-43 2 -22 -14 -30 -6 -35 33 -2 18 3 24 19 25 17 1 17 2 4 6 -10 2 -18 9 -18
14 0 5 11 7 25 3 17 -4 25 -2 25 7 0 7 3 9 7 6 6 -7 33 11 33 22 0 3 -20 6
-46 6 -25 0 -48 5 -52 11 -4 6 -16 14 -27 19 -17 7 -18 9 -3 12 25 6 30 32 11
64 -11 18 -26 29 -40 29 -30 0 -39 -18 -17 -35 25 -18 12 -30 -14 -14 -29 18
-35 49 -14 72 16 19 16 19 -6 12 -21 -6 -23 -4 -18 13 5 14 1 21 -13 25 -14 3
-22 -1 -26 -13 -9 -27 -36 -34 -42 -10 -3 11 -12 20 -20 20 -8 0 -11 5 -8 10
3 6 14 10 24 10 10 0 23 6 29 13 13 16 -41 17 -63 1z m-930 -304 c3 -5 1 -10
-4 -10 -6 0 -11 5 -11 10 0 6 2 10 4 10 3 0 8 -4 11 -10z m-55 -49 c-14 -26
-58 -56 -68 -46 -4 4 -1 10 6 12 6 3 12 11 12 19 0 8 7 14 15 14 8 0 15 6 15
14 0 16 23 28 28 15 2 -4 -2 -17 -8 -28z m1320 -151 c0 -5 -5 -10 -11 -10 -5
0 -7 5 -4 10 3 6 8 10 11 10 2 0 4 -4 4 -10z"/>
<path d="M8490 12090 c0 -5 7 -10 15 -10 8 0 15 5 15 10 0 6 -7 10 -15 10 -8
0 -15 -4 -15 -10z"/>
<path d="M8560 12031 c0 -10 19 -25 25 -20 1 2 -3 10 -11 17 -8 7 -14 8 -14 3z"/>
<path d="M4932 12018 c-13 -13 -16 -29 -4 -26 4 0 15 -2 25 -6 22 -10 50 0 41
16 -5 8 -2 9 10 5 12 -5 16 -3 14 5 -6 17 -70 22 -86 6z"/>
<path d="M8665 11990 c-3 -5 -1 -10 4 -10 6 0 11 5 11 10 0 6 -2 10 -4 10 -3
0 -8 -4 -11 -10z"/>
<path d="M4855 11981 c-4 -3 -14 -6 -23 -7 -10 0 -42 -12 -72 -26 -30 -15 -70
-28 -89 -30 -19 -2 -44 -12 -56 -23 -11 -11 -42 -37 -67 -58 -43 -35 -47 -41
-47 -85 0 -26 -1 -64 -2 -86 -2 -60 17 -86 60 -85 20 1 56 -4 81 -11 49 -14
210 -20 210 -8 0 4 7 5 15 2 8 -4 15 -2 15 4 0 5 21 14 48 19 40 7 47 12 45
30 -3 30 25 37 76 19 23 -7 50 -12 60 -9 11 3 45 -1 78 -7 32 -7 100 -13 151
-15 52 -1 97 -7 100 -12 8 -12 66 -22 160 -28 35 -2 70 -9 78 -16 11 -9 21 -9
44 1 16 7 30 17 30 22 0 6 7 8 15 4 20 -7 20 20 -1 32 -11 6 -14 21 -12 53 l3
44 22 -24 c12 -13 33 -29 47 -36 24 -13 28 -12 48 16 13 18 31 29 45 29 13 0
26 7 29 15 4 8 15 15 25 15 14 0 19 7 19 25 0 14 -5 25 -11 25 -6 0 -20 11
-31 25 -11 14 -30 25 -44 25 l-24 0 20 -32 c28 -46 25 -53 -10 -28 -16 12 -30
28 -30 36 0 8 -10 14 -23 14 -13 0 -27 4 -33 10 -5 5 -27 12 -48 16 -22 3 -52
15 -67 26 -15 11 -32 17 -38 13 -7 -3 -27 2 -46 13 -18 11 -58 23 -89 27 -31
4 -56 11 -56 15 0 4 -34 7 -75 6 -41 -1 -76 3 -78 8 -2 6 -9 6 -17 1 -21 -13
-41 -15 -180 -17 -143 -1 -170 4 -170 35 0 18 -2 19 -10 7 -7 -10 -12 -12 -17
-4 -10 13 -50 24 -58 15z"/>
<path d="M8570 11960 c0 -5 5 -10 10 -10 6 0 10 5 10 10 0 6 -4 10 -10 10 -5
0 -10 -4 -10 -10z"/>
<path d="M8728 11800 c-17 -10 -22 -55 -11 -94 4 -14 7 -16 14 -5 4 7 4 18 0
24 -12 14 -7 50 8 69 15 18 13 19 -11 6z"/>
<path d="M7165 11720 c3 -5 8 -10 11 -10 2 0 4 5 4 10 0 6 -5 10 -11 10 -5 0
-7 -4 -4 -10z"/>
<path d="M8750 11682 c-14 -6 -14 -9 2 -24 10 -10 19 -16 19 -13 1 3 2 8 3 13
1 4 5 13 9 20 9 13 -8 15 -33 4z"/>
<path d="M8710 11651 c0 -5 7 -12 16 -15 14 -5 15 -4 4 9 -14 17 -20 19 -20 6z"/>
<path d="M7185 11620 c-3 -5 -1 -10 4 -10 6 0 11 5 11 10 0 6 -2 10 -4 10 -3
0 -8 -4 -11 -10z"/>
<path d="M8720 11453 c0 -10 4 -14 8 -8 4 6 11 13 16 18 5 4 2 7 -7 7 -10 0
-17 -8 -17 -17z"/>
<path d="M7525 11442 c-27 -2 -55 -8 -62 -14 -7 -5 -16 -7 -22 -4 -5 4 -12 -3
-16 -14 -3 -11 -11 -20 -16 -20 -12 0 -12 -27 1 -35 6 -4 18 -1 26 6 19 15 71
22 79 10 3 -6 -12 -20 -34 -33 -41 -24 -91 -78 -73 -78 6 0 12 5 14 12 3 7 14
9 30 5 26 -7 48 -47 48 -87 0 -28 49 -108 80 -130 16 -11 56 -34 90 -51 58
-29 63 -29 80 -14 19 17 72 49 100 60 8 3 31 30 50 58 29 44 35 63 38 120 4
61 6 68 28 73 15 4 40 -2 66 -16 45 -23 168 -126 168 -140 0 -4 -11 -11 -25
-14 -14 -4 -32 -17 -41 -31 -9 -14 -21 -25 -26 -25 -5 0 -28 -13 -51 -29 -23
-15 -53 -32 -67 -36 -14 -4 -30 -11 -36 -16 -17 -14 -103 -31 -158 -33 -66 -2
-69 -21 -7 -33 43 -8 55 -7 84 10 32 18 37 19 66 4 23 -11 39 -13 56 -7 12 5
26 6 29 3 3 -3 8 2 12 11 4 11 13 15 25 11 14 -5 19 -1 19 12 0 10 3 14 8 8 4
-6 19 -18 34 -28 24 -15 30 -15 55 -2 26 14 28 14 31 -5 4 -25 20 -26 29 -2
16 45 77 71 100 42 10 -12 11 -9 6 20 -3 19 -11 38 -17 42 -6 4 -7 10 -3 15 5
4 12 1 16 -6 12 -19 30 -5 24 18 -4 16 -1 19 16 14 15 -4 21 -1 21 11 0 9 3
16 8 16 4 0 12 11 18 25 10 21 9 26 -13 40 -17 11 -23 23 -20 36 4 16 2 17
-15 8 -11 -6 -18 -7 -14 -1 7 11 -48 62 -68 62 -7 0 -16 8 -19 19 -3 12 -17
21 -38 24 -88 15 -136 27 -164 41 -44 22 -154 37 -290 40 -66 1 -125 5 -130 8
-6 3 -19 2 -30 -2 -12 -4 -25 -1 -35 9 -11 12 -29 15 -65 13z m32 -58 c-27
-15 -47 -12 -47 7 0 5 17 9 38 9 l37 -1 -28 -15z"/>
<path d="M8710 11383 c0 -13 5 -23 10 -23 13 0 13 11 0 30 -8 12 -10 11 -10
-7z"/>
<path d="M5488 11373 c-7 -9 -7 -13 1 -13 6 0 11 -7 11 -15 0 -12 7 -14 27 -9
27 7 53 26 53 39 0 4 -7 5 -15 1 -8 -3 -15 -1 -15 3 0 13 -50 8 -62 -6z"/>
<path d="M5585 11350 c-11 -12 -13 -20 -6 -25 6 -3 11 -1 11 4 0 6 9 2 20 -9
11 -11 29 -20 40 -20 11 0 20 -5 20 -11 0 -5 11 2 24 16 14 15 22 33 19 44 -7
26 -105 26 -128 1z"/>
<path d="M4995 11337 c-80 -27 -135 -51 -135 -59 0 -4 -8 -8 -18 -8 -29 0 -67
-56 -63 -91 1 -9 -20 -39 -48 -67 -33 -34 -46 -53 -39 -60 6 -6 16 -8 23 -6 7
3 20 -5 29 -18 14 -19 18 -21 26 -8 6 10 10 11 10 3 0 -7 8 -22 17 -33 10 -11
18 -28 18 -38 0 -9 5 -17 10 -17 17 0 36 -16 30 -25 -3 -5 0 -12 6 -16 19 -11
112 -13 131 -3 12 7 18 6 18 -1 0 -6 10 -10 23 -8 12 2 21 9 20 15 -1 6 7 13
17 16 11 3 18 1 14 -4 -5 -9 9 -13 34 -10 8 1 23 -5 33 -15 25 -23 134 -34
127 -13 -3 8 -14 14 -25 14 -11 0 -26 5 -35 12 -8 7 -30 13 -49 15 -19 1 -39
10 -46 19 -7 9 -44 29 -82 45 -43 18 -75 38 -82 51 -8 14 -22 23 -36 23 -65 0
25 95 142 151 94 45 91 48 110 -78 8 -54 68 -123 132 -153 40 -18 57 -21 107
-15 69 7 100 22 138 62 27 28 68 112 68 138 0 30 24 65 44 65 20 0 81 -37 124
-77 26 -24 66 -27 84 -6 7 9 4 15 -13 22 -13 5 -49 26 -79 45 -33 22 -61 34
-72 30 -10 -3 -20 0 -23 8 -3 8 -15 15 -27 15 -12 1 -25 9 -30 17 -5 8 -34 22
-66 31 -31 8 -64 20 -74 25 -22 13 -290 11 -305 -2 -9 -7 -13 -7 -13 1 0 9 -6
9 -22 0 -13 -7 -24 -12 -25 -11 -11 7 -43 0 -38 -8 3 -5 -1 -10 -9 -10 -9 0
-16 -4 -16 -10 0 -5 -7 -7 -15 -4 -8 4 -15 1 -15 -5 0 -6 -8 -11 -18 -11 -10
0 -28 -9 -39 -20 -18 -16 -22 -17 -27 -5 -3 8 -1 15 4 15 6 0 29 14 52 30 22
17 48 30 57 30 13 1 13 3 -3 15 -22 17 -20 17 -61 2z m-188 -182 c0 -8 -4 -15
-9 -15 -10 0 -11 14 -1 23 9 10 10 9 10 -8z m141 -253 c2 -7 -1 -12 -7 -12 -6
0 -11 5 -11 11 0 8 -5 8 -15 -1 -9 -8 -15 -8 -15 -2 0 22 41 25 48 4z"/>
<path d="M5730 11325 c0 -3 11 -10 25 -15 25 -10 35 -30 13 -30 -6 0 -9 -3 -6
-6 4 -3 16 -1 27 5 20 11 20 12 1 31 -18 18 -60 28 -60 15z"/>
<path d="M8736 11275 c5 -20 3 -25 -14 -25 -11 0 -23 8 -28 18 -6 14 -8 11
-14 -13 -8 -38 -3 -49 15 -31 8 7 25 11 39 9 19 -4 28 0 33 13 4 10 2 19 -5
22 -7 2 -12 10 -12 18 0 8 -5 14 -10 14 -6 0 -8 -11 -4 -25z"/>
<path d="M8646 11227 c3 -10 9 -15 12 -12 3 3 0 11 -7 18 -10 9 -11 8 -5 -6z"/>
<path d="M7295 11210 c4 -6 11 -8 16 -5 14 9 11 15 -7 15 -8 0 -12 -5 -9 -10z"/>
<path d="M7183 11108 c-13 -13 -23 -30 -23 -36 0 -7 -4 -12 -10 -12 -20 0 -10
-15 18 -27 92 -40 122 -47 215 -49 72 -1 97 2 97 11 0 19 -53 37 -132 44 -5 1
-17 10 -28 21 -16 16 -39 23 -102 29 -4 1 -8 10 -10 22 -3 20 -3 20 -25 -3z"/>
<path d="M6980 11099 c0 -5 5 -7 10 -4 6 3 10 8 10 11 0 2 -4 4 -10 4 -5 0
-10 -5 -10 -11z"/>
<path d="M6975 11060 c-3 -5 -1 -10 4 -10 6 0 11 5 11 10 0 6 -2 10 -4 10 -3
0 -8 -4 -11 -10z"/>
<path d="M5891 11016 c-7 -8 -27 -17 -45 -20 -19 -4 -40 -13 -47 -22 -8 -10
-26 -14 -53 -12 -37 3 -41 0 -44 -21 -3 -22 -1 -23 30 -16 18 4 68 9 111 12
74 4 78 6 93 35 8 16 13 36 10 44 -7 18 -40 18 -55 0z"/>
<path d="M7071 11016 c-7 -8 -8 -17 -3 -20 6 -3 12 3 15 14 6 24 4 25 -12 6z"/>
<path d="M7063 10982 c-18 -6 -20 -10 -12 -22 8 -11 12 -12 16 -2 9 22 25 13
17 -10 -9 -31 -11 -33 -29 -18 -13 11 -15 9 -15 -14 0 -23 2 -25 19 -16 25 13
31 13 31 -1 0 -7 8 -18 18 -25 16 -13 16 -15 -1 -28 -14 -11 -15 -15 -5 -19 7
-3 2 -5 -11 -4 -13 1 -26 -3 -28 -10 -3 -9 4 -10 26 -3 16 4 31 7 33 5 3 -4 1
37 -4 87 -1 9 -6 15 -9 12 -12 -7 -22 17 -11 28 10 10 5 49 -7 47 -3 -1 -16
-4 -28 -7z"/>
<path d="M5654 10935 c-22 -19 -24 -23 -9 -18 24 8 49 32 42 39 -2 3 -18 -6
-33 -21z"/>
<path d="M7170 10944 c0 -8 5 -12 10 -9 6 4 8 11 5 16 -9 14 -15 11 -15 -7z"/>
<path d="M4245 10921 c-3 -5 -2 -16 1 -25 4 -11 1 -16 -10 -16 -9 0 -16 -8
-16 -19 0 -11 -4 -23 -10 -26 -18 -11 -12 -100 8 -118 10 -10 23 -17 29 -17
17 0 40 33 56 82 14 44 14 51 -1 87 -17 40 -47 67 -57 52z"/>
<path d="M7067 10863 c-10 -9 -9 -23 2 -23 5 0 11 7 15 15 5 15 -5 20 -17 8z"/>
<path d="M7102 10768 c2 -5 8 -9 13 -9 5 0 11 4 13 9 1 5 -4 9 -13 9 -9 0 -14
-4 -13 -9z"/>
<path d="M8725 10750 c-3 -6 1 -7 9 -4 18 7 21 14 7 14 -6 0 -13 -4 -16 -10z"/>
<path d="M7132 10739 c2 -7 10 -15 17 -17 8 -3 12 1 9 9 -2 7 -10 15 -17 17
-8 3 -12 -1 -9 -9z"/>
<path d="M8760 10610 c0 -13 11 -13 30 0 12 8 11 10 -7 10 -13 0 -23 -4 -23
-10z"/>
<path d="M8761 10544 c0 -11 3 -14 6 -6 3 7 2 16 -1 19 -3 4 -6 -2 -5 -13z"/>
<path d="M8765 10470 c-3 -5 -2 -10 4 -10 5 0 13 5 16 10 3 6 2 10 -4 10 -5 0
-13 -4 -16 -10z"/>
<path d="M8763 10426 c5 -16 34 -19 39 -4 4 8 -3 14 -19 14 -14 1 -22 -3 -20
-10z"/>
<path d="M8740 10400 c0 -5 5 -10 10 -10 6 0 10 5 10 10 0 6 -4 10 -10 10 -5
0 -10 -4 -10 -10z"/>
<path d="M4140 10236 c0 -2 7 -9 15 -16 9 -7 15 -8 15 -2 0 5 -7 12 -15 16 -8
3 -15 4 -15 2z"/>
<path d="M7090 10190 c0 -5 -7 -10 -15 -10 -8 0 -15 -7 -15 -15 0 -10 9 -13
37 -9 20 2 38 5 39 7 1 1 -9 10 -22 20 -13 10 -24 13 -24 7z"/>
<path d="M7160 10140 c0 -5 5 -10 10 -10 6 0 10 5 10 10 0 6 -4 10 -10 10 -5
0 -10 -4 -10 -10z"/>
<path d="M4110 10118 c0 -21 9 -22 33 -4 23 18 22 21 -8 21 -17 0 -25 -5 -25
-17z"/>
<path d="M7097 10117 c-21 -32 -21 -34 -1 -55 15 -15 16 -14 9 7 -7 22 -6 22
14 5 11 -10 18 -21 15 -25 -2 -4 11 -12 30 -19 19 -6 37 -17 40 -25 3 -9 12
-12 21 -9 11 5 13 10 6 17 -7 7 -7 14 0 23 6 8 7 14 0 18 -5 4 -12 2 -16 -4
-8 -12 -35 12 -35 32 0 7 -9 19 -20 26 -17 10 -20 10 -20 -5 0 -22 -17 -5 -22
21 -3 18 -5 17 -21 -7z"/>
<path d="M7127 9999 c7 -7 15 -10 18 -7 3 3 -2 9 -12 12 -14 6 -15 5 -6 -5z"/>
<path d="M4175 9680 c-3 -5 1 -10 10 -10 9 0 13 5 10 10 -3 6 -8 10 -10 10 -2
0 -7 -4 -10 -10z"/>
<path d="M4225 9680 c3 -5 11 -10 16 -10 6 0 7 5 4 10 -3 6 -11 10 -16 10 -6
0 -7 -4 -4 -10z"/>
<path d="M6955 9643 c-35 -18 -81 -53 -71 -53 4 0 0 -10 -8 -22 -34 -48 -10
-50 70 -7 64 35 91 56 104 80 7 13 3 16 -28 17 -20 1 -50 -6 -67 -15z"/>
<path d="M6150 9621 c0 -14 69 -71 88 -72 70 -5 122 -2 122 6 0 16 -66 54
-112 65 -54 12 -98 13 -98 1z"/>
<path d="M4326 9392 c-3 -6 -1 -14 5 -17 15 -10 25 3 12 16 -7 7 -13 7 -17 1z"/>
<path d="M8530 9340 c0 -5 5 -10 10 -10 6 0 10 5 10 10 0 6 -4 10 -10 10 -5 0
-10 -4 -10 -10z"/>
<path d="M4400 9270 c0 -5 5 -10 11 -10 5 0 7 5 4 10 -3 6 -8 10 -11 10 -2 0
-4 -4 -4 -10z"/>
<path d="M8506 9171 c-3 -5 1 -14 8 -20 12 -10 13 -8 9 8 -6 23 -9 25 -17 12z"/>
<path d="M7910 9134 c0 -8 5 -12 10 -9 6 3 10 10 10 16 0 5 -4 9 -10 9 -5 0
-10 -7 -10 -16z"/>
<path d="M8060 9000 c0 -5 7 -10 16 -10 8 0 12 5 9 10 -3 6 -10 10 -16 10 -5
0 -9 -4 -9 -10z"/>
<path d="M4876 8774 c-5 -14 -4 -15 9 -4 17 14 19 20 6 20 -5 0 -12 -7 -15
-16z"/>
<path d="M7170 8795 c0 -8 7 -15 15 -15 8 0 15 7 15 15 0 8 -7 15 -15 15 -8 0
-15 -7 -15 -15z"/>
<path d="M6040 8745 c0 -8 4 -15 9 -15 5 0 14 7 21 15 10 13 9 15 -9 15 -12 0
-21 -6 -21 -15z"/>
<path d="M7753 8709 c0 -22 4 -28 14 -24 17 6 46 -19 35 -30 -4 -4 1 -6 11 -4
29 6 25 23 -10 39 -18 8 -33 20 -33 27 0 27 -17 20 -17 -8z"/>
<path d="M6170 8640 c0 -5 6 -10 14 -10 8 0 18 5 21 10 3 6 -3 10 -14 10 -12
0 -21 -4 -21 -10z"/>
<path d="M7980 8585 c-13 -15 -70 -16 -70 0 0 5 -5 4 -12 -3 -9 -9 -5 -17 15
-36 14 -13 36 -27 47 -31 26 -8 20 -31 -5 -27 -17 3 -17 2 -5 -13 12 -15 15
-14 37 9 17 18 22 33 17 50 -3 13 -1 34 6 45 8 17 8 21 -3 21 -8 0 -20 -7 -27
-15z"/>
<path d="M8025 8550 c9 -10 15 -26 12 -35 -4 -8 -2 -15 2 -15 5 0 12 7 15 16
7 17 -19 54 -37 54 -6 0 -2 -9 8 -20z"/>
<path d="M7190 8530 c0 -5 7 -7 15 -4 8 4 15 8 15 10 0 2 -7 4 -15 4 -8 0 -15
-4 -15 -10z"/>
<path d="M5133 8453 c-26 -18 -30 -33 -8 -33 13 0 41 38 33 45 -2 1 -13 -4
-25 -12z"/>
<path d="M7970 8389 c0 -11 27 -12 34 -1 2 4 -4 9 -15 9 -10 1 -19 -2 -19 -8z"/>
<path d="M5087 8353 c-13 -13 -7 -32 8 -27 8 4 15 12 15 20 0 15 -12 19 -23 7z"/>
<path d="M6476 8252 c-18 -2 -30 -11 -33 -23 -3 -10 -11 -19 -18 -19 -7 0 -18
-7 -25 -15 -11 -13 -15 -13 -21 -3 -15 24 -38 -13 -32 -50 4 -26 8 -30 19 -21
8 6 14 9 15 5 3 -23 0 -64 -6 -79 -7 -18 27 -56 53 -57 6 0 12 -5 12 -11 0 -7
21 -9 63 -5 82 7 99 10 120 22 30 17 76 4 94 -26 18 -31 55 -35 87 -10 43 36
75 68 70 72 -10 11 27 30 61 31 40 1 46 12 13 21 -23 6 -23 6 6 31 l29 25 -28
30 c-16 17 -35 30 -42 30 -7 0 -13 5 -13 10 0 6 -9 10 -20 10 -11 0 -37 7 -57
15 -36 13 -273 25 -347 17z"/>
<path d="M7724 7958 c-4 -5 0 -14 7 -19 20 -13 29 -11 29 5 0 18 -27 29 -36
14z"/>
<path d="M7210 7932 c0 -14 11 -21 26 -15 21 8 17 23 -6 23 -11 0 -20 -4 -20
-8z"/>
<path d="M5910 7610 c0 -5 5 -10 10 -10 6 0 10 5 10 10 0 6 -4 10 -10 10 -5 0
-10 -4 -10 -10z"/>
<path d="M6110 7576 c0 -9 5 -16 10 -16 6 0 10 4 10 9 0 6 -4 13 -10 16 -5 3
-10 -1 -10 -9z"/>
<path d="M8253 7305 c-16 -18 5 -39 24 -24 7 7 13 15 13 19 0 14 -25 18 -37 5z"/>
<path d="M8101 7134 c0 -11 3 -14 6 -6 3 7 2 16 -1 19 -3 4 -6 -2 -5 -13z"/>
<path d="M8350 7130 c0 -5 5 -10 11 -10 5 0 7 5 4 10 -3 6 -8 10 -11 10 -2 0
-4 -4 -4 -10z"/>
<path d="M8060 7069 c0 -5 5 -7 10 -4 6 3 10 8 10 11 0 2 -4 4 -10 4 -5 0 -10
-5 -10 -11z"/>
<path d="M4970 6800 c0 -5 7 -10 16 -10 8 0 12 5 9 10 -3 6 -10 10 -16 10 -5
0 -9 -4 -9 -10z"/>
<path d="M5020 6720 c0 -5 5 -10 11 -10 5 0 7 5 4 10 -3 6 -8 10 -11 10 -2 0
-4 -4 -4 -10z"/>
<path d="M6626 6711 c-4 -5 1 -8 9 -7 21 3 31 16 12 16 -9 0 -18 -4 -21 -9z"/>
<path d="M5290 6669 c0 -5 5 -7 10 -4 6 3 10 8 10 11 0 2 -4 4 -10 4 -5 0 -10
-5 -10 -11z"/>
<path d="M6622 6660 c-7 -11 -18 -20 -26 -20 -7 0 -21 -9 -31 -20 -18 -20 -18
-20 24 -2 22 9 44 25 47 35 8 26 0 30 -14 7z"/>
<path d="M6957 6633 c-14 -13 -6 -33 13 -33 22 0 23 1 14 24 -7 17 -16 20 -27
9z"/>
<path d="M7077 6594 c-9 -9 5 -44 18 -44 8 0 21 -7 29 -16 9 -8 16 -11 16 -6
0 14 -56 73 -63 66z"/>
<path d="M6930 6450 c0 -5 7 -7 15 -4 8 4 15 8 15 10 0 2 -7 4 -15 4 -8 0 -15
-4 -15 -10z"/>
<path d="M7370 6314 c0 -3 9 -17 20 -31 11 -14 20 -21 20 -15 0 6 -5 14 -11
17 -6 4 -8 13 -5 21 3 8 -1 14 -9 14 -8 0 -15 -3 -15 -6z"/>
<path d="M7420 6309 c0 -5 5 -7 10 -4 6 3 10 8 10 11 0 2 -4 4 -10 4 -5 0 -10
-5 -10 -11z"/>
<path d="M7292 6274 c-11 -12 -17 -12 -28 -3 -11 9 -14 6 -14 -18 0 -16 9 -36
20 -46 27 -22 28 -22 22 11 -5 24 -4 26 11 13 14 -11 20 -11 32 -1 16 13 19 8
15 -24 -1 -11 3 -15 9 -12 26 16 5 83 -22 73 -11 -4 -14 -1 -10 9 7 19 -18 18
-35 -2z"/>
<path d="M4770 6131 c0 -11 5 -23 10 -26 6 -4 10 5 10 19 0 14 -4 26 -10 26
-5 0 -10 -9 -10 -19z"/>
<path d="M4814 5954 c3 -9 6 -18 6 -20 0 -3 4 -3 10 1 11 7 2 35 -12 35 -6 0
-7 -7 -4 -16z"/>
<path d="M7298 3838 c5 -5 16 -8 23 -6 8 3 3 7 -10 11 -17 4 -21 3 -13 -5z"/>
<path d="M6930 3810 c0 -5 5 -10 10 -10 6 0 10 5 10 10 0 6 -4 10 -10 10 -5 0
-10 -4 -10 -10z"/>
<path d="M6795 3770 c-3 -5 -1 -10 4 -10 6 0 11 5 11 10 0 6 -2 10 -4 10 -3 0
-8 -4 -11 -10z"/>
<path d="M7079 3765 c-1 -3 -2 -8 -3 -12 -1 -5 -5 -13 -9 -19 -4 -7 1 -14 13
-17 11 -3 24 -17 30 -31 10 -28 30 -35 30 -11 0 7 -8 19 -17 24 -10 6 -15 11
-11 11 10 0 -12 60 -23 60 -5 0 -10 -2 -10 -5z"/>
<path d="M7155 3741 c-8 -27 -2 -36 13 -18 6 7 7 18 3 26 -7 10 -10 8 -16 -8z"/>
<path d="M7183 3605 c-3 -9 -3 -19 1 -22 3 -4 6 -1 6 6 0 7 4 9 10 6 6 -3 7 1
4 9 -8 20 -13 20 -21 1z"/>
<path d="M7210 3570 c0 -5 4 -10 9 -10 6 0 13 5 16 10 3 6 -1 10 -9 10 -9 0
-16 -4 -16 -10z"/>
<path d="M8350 5145 c-7 -9 -10 -18 -7 -22 8 -7 37 15 37 28 0 14 -16 11 -30
-6z"/>
<path d="M8440 4810 c-13 -8 -13 -10 2 -10 9 0 20 5 23 10 8 13 -5 13 -25 0z"/>
<path d="M8209 4374 c-12 -15 -11 -16 9 -10 18 6 21 4 15 -10 -4 -12 -3 -15 5
-10 17 10 15 46 -2 46 -7 0 -20 -7 -27 -16z"/>
<path d="M8180 4327 c0 -8 7 -18 16 -21 11 -4 14 -1 12 11 -4 21 -28 30 -28
10z"/>
<path d="M8405 4304 c-20 -20 -19 -31 4 -43 14 -8 24 -5 45 12 14 13 26 27 26
33 0 17 -58 15 -75 -2z"/>
<path d="M5094 3499 c-5 -9 2 -13 18 -10 4 0 12 -8 18 -19 15 -28 42 -26 38 2
-2 16 -12 24 -36 29 -18 4 -35 3 -38 -2z"/>
<path d="M5210 3442 c0 -10 21 -32 32 -32 16 0 8 19 -12 30 -11 6 -20 7 -20 2z"/>
<path d="M8350 15020 c0 -5 7 -10 15 -10 8 0 15 5 15 10 0 6 -7 10 -15 10 -8
0 -15 -4 -15 -10z"/>
<path d="M9530 11300 c0 -5 5 -10 10 -10 6 0 10 5 10 10 0 6 -4 10 -10 10 -5
0 -10 -4 -10 -10z"/>
<path d="M9500 10780 c0 -5 5 -10 10 -10 6 0 10 5 10 10 0 6 -4 10 -10 10 -5
0 -10 -4 -10 -10z"/>
<path d="M9542 10773 c2 -9 16 -20 31 -24 l28 -8 -26 25 c-31 28 -38 30 -33 7z"/>
<path d="M9525 10720 c3 -5 8 -10 11 -10 2 0 4 5 4 10 0 6 -5 10 -11 10 -5 0
-7 -4 -4 -10z"/>
<path d="M9582 10719 c2 -7 10 -15 17 -17 8 -3 12 1 9 9 -2 7 -10 15 -17 17
-8 3 -12 -1 -9 -9z"/>
<path d="M9560 10691 c0 -6 5 -13 10 -16 6 -3 10 1 10 9 0 9 -4 16 -10 16 -5
0 -10 -4 -10 -9z"/>
<path d="M9585 10661 c-3 -6 3 -24 14 -41 11 -19 22 -27 26 -21 3 6 -1 18 -9
26 -8 9 -13 22 -10 30 7 16 -11 21 -21 6z"/>
<path d="M3375 10640 c-3 -5 -1 -10 4 -10 6 0 11 5 11 10 0 6 -2 10 -4 10 -3
0 -8 -4 -11 -10z"/>
<path d="M3337 10577 c4 -6 8 -27 10 -47 5 -44 21 -62 22 -24 1 56 2 64 13 64
21 0 -2 13 -27 16 -17 2 -23 -1 -18 -9z"/>
<path d="M9570 10520 c0 -5 7 -10 16 -10 8 0 12 5 9 10 -3 6 -10 10 -16 10 -5
0 -9 -4 -9 -10z"/>
<path d="M9305 10510 c-3 -5 -1 -10 4 -10 6 0 11 5 11 10 0 6 -2 10 -4 10 -3
0 -8 -4 -11 -10z"/>
<path d="M3347 10426 c-4 -10 -5 -21 -2 -24 9 -9 17 6 13 25 -3 17 -4 17 -11
-1z"/>
<path d="M3333 10350 c3 -10 0 -21 -7 -23 -6 -2 -8 -8 -4 -12 14 -14 38 5 38
30 0 16 -6 25 -16 25 -11 0 -15 -6 -11 -20z"/>
<path d="M9540 10360 c0 -5 5 -10 10 -10 6 0 10 5 10 10 0 6 -4 10 -10 10 -5
0 -10 -4 -10 -10z"/>
<path d="M9466 10345 c4 -8 10 -15 15 -15 4 0 6 7 3 15 -4 8 -10 15 -15 15 -4
0 -6 -7 -3 -15z"/>
<path d="M3343 10303 c-18 -7 -16 -23 2 -23 8 0 15 7 15 15 0 8 -1 15 -2 14
-2 0 -9 -3 -15 -6z"/>
<path d="M3320 10250 c0 -5 7 -10 15 -10 8 0 15 -7 15 -15 0 -8 5 -15 10 -15
13 0 13 6 0 31 -11 20 -40 27 -40 9z"/>
<path d="M3715 10070 c-3 -5 -1 -10 4 -10 6 0 11 5 11 10 0 6 -2 10 -4 10 -3
0 -8 -4 -11 -10z"/>
<path d="M3480 9679 c0 -5 5 -7 10 -4 6 3 10 8 10 11 0 2 -4 4 -10 4 -5 0 -10
-5 -10 -11z"/>
<path d="M3506 9651 c-4 -5 -2 -12 3 -15 5 -4 12 -2 15 3 4 5 2 12 -3 15 -5 4
-12 2 -15 -3z"/>
<path d="M9342 9614 c-7 -8 -8 -14 -3 -14 10 0 25 19 20 25 -2 1 -10 -3 -17
-11z"/>
<path d="M3540 9600 c0 -5 5 -10 10 -10 6 0 10 5 10 10 0 6 -4 10 -10 10 -5 0
-10 -4 -10 -10z"/>
<path d="M9280 9580 c6 -11 15 -18 21 -15 13 9 11 13 -12 25 -19 11 -20 10 -9
-10z"/>
<path d="M1 6964 c0 -11 3 -14 6 -6 3 7 2 16 -1 19 -3 4 -6 -2 -5 -13z"/>
</g>
</svg>
